<svg width="197" height="256" viewBox="0 0 197 256" fill="none" xmlns="http://www.w3.org/2000/svg">
<path d="M25.1446 51.9468C44.3073 45.068 65.4925 54.8168 72.4657 73.7217L99.6168 147.333C106.59 166.237 96.712 187.143 77.5492 194.029C58.3865 200.908 37.2014 191.159 30.2281 172.254L3.07705 98.6435C-3.89617 79.7307 5.98972 58.8255 25.1446 51.9468Z" fill="url(#paint0_linear)"/>
<path d="M115.172 53.3462C133.656 61.8459 141.652 83.5259 133.031 101.759L98.3443 175.148C89.7235 193.381 67.7574 201.272 49.2819 192.772C30.7985 184.273 22.8024 162.593 31.4232 144.36L66.1098 70.9702C74.7228 52.7295 96.6889 44.8387 115.172 53.3462Z" fill="url(#paint1_linear)"/>
<path d="M86.7636 51.9468C105.926 45.068 127.111 54.8168 134.085 73.7217L161.236 147.333C168.209 166.237 158.331 187.143 139.168 194.029C120.006 200.908 98.8203 191.159 91.8471 172.254L64.696 98.6435C57.715 79.7386 67.6009 58.8334 86.7636 51.9468Z" fill="url(#paint2_linear)"/>
<path d="M175.526 55.7577C194.009 64.2574 202.005 85.9375 193.384 104.17L159.838 175.164C151.217 193.397 129.251 201.288 110.775 192.788C92.2919 184.288 84.2958 162.608 92.9166 144.376L126.463 73.3817C135.076 55.141 157.042 47.2581 175.526 55.7577Z" fill="url(#paint3_linear)"/>
<path d="M175.518 55.7656C159.791 48.5943 141.129 53.1169 130.571 66.6768C132 68.8907 133.179 71.2469 134.093 73.7138L161.26 147.317C164.25 155.469 164.188 164.411 161.088 172.523L193.393 104.162C201.935 85.9295 193.955 64.3048 175.518 55.7656Z" fill="#3D5EA9"/>
<defs>
<linearGradient id="paint0_linear" x1="51.3516" y1="196.229" x2="51.3516" y2="49.7392" gradientUnits="userSpaceOnUse">
<stop stop-color="#F6C969"/>
<stop offset="1" stop-color="#DD6789"/>
</linearGradient>
<linearGradient id="paint1_linear" x1="28.2475" y1="123.337" x2="136.628" y2="124.2" gradientUnits="userSpaceOnUse">
<stop stop-color="#F6C969"/>
<stop offset="1" stop-color="#DD6789"/>
</linearGradient>
<linearGradient id="paint2_linear" x1="112.964" y1="196.233" x2="112.964" y2="49.7428" gradientUnits="userSpaceOnUse">
<stop stop-color="#3D5EA9"/>
<stop offset="1" stop-color="#8DCCBD"/>
</linearGradient>
<linearGradient id="paint3_linear" x1="143.144" y1="196.209" x2="143.144" y2="52.3363" gradientUnits="userSpaceOnUse">
<stop stop-color="#3D5EA9"/>
<stop offset="1" stop-color="#DD6789"/>
</linearGradient>
</defs>
</svg>
