<svg width="200" height="200" viewBox="0 0 200 200" fill="none" xmlns="http://www.w3.org/2000/svg">
<path d="M131.902 81.1291C123.491 66.6339 120.403 52.0875 107.08 39.6719C96.6367 29.9401 84.134 21.0484 65.7307 21.2071C48.1931 21.3608 31.5722 27.0308 23.7817 40.5938C16.0987 53.998 17.4407 72.0684 24.5295 83.9514C28.3044 90.2821 34.8247 94.8099 40.3718 100.106C46.4874 105.94 49.4787 112.629 51.3431 120.21C54.6211 133.527 56.378 146.798 70.8066 155.157C84.9279 163.352 103.516 162.19 121.514 161.242C137.956 160.381 161.512 163.04 173.333 149.907C184.514 137.486 181.708 117.27 171.597 107.231C160.318 96.0495 139.969 95.0251 131.902 81.1291Z" fill="#37474F"/>
<path opacity="0.9" d="M131.902 81.1291C123.491 66.6339 120.403 52.0875 107.08 39.6719C96.6367 29.9401 84.134 21.0484 65.7307 21.2071C48.1931 21.3608 31.5722 27.0308 23.7817 40.5938C16.0987 53.998 17.4407 72.0684 24.5295 83.9514C28.3044 90.2821 34.8247 94.8099 40.3718 100.106C46.4874 105.94 49.4787 112.629 51.3431 120.21C54.6211 133.527 56.378 146.798 70.8066 155.157C84.9279 163.352 103.516 162.19 121.514 161.242C137.956 160.381 161.512 163.04 173.333 149.907C184.514 137.486 181.708 117.27 171.597 107.231C160.318 96.0495 139.969 95.0251 131.902 81.1291Z" fill="white"/>
<path d="M99.8227 200C154.67 200 199.133 197.404 199.133 194.202C199.133 191 154.67 188.404 99.8227 188.404C44.9753 188.404 0.512695 191 0.512695 194.202C0.512695 197.404 44.9753 200 99.8227 200Z" fill="#F5F5F5"/>
<path d="M37.7135 47.0373H12.0012V35.4309L37.7135 4.86804H50.0063V36.1121H56.3831V47.0629H50.0165V56.559H37.7238L37.7135 47.0373ZM37.7135 36.0865V20.1008L24.1301 36.0865H37.7135Z" fill="#263238"/>
<path d="M158.679 4.86803V56.5334H144.384V22.6771C142.298 24.2969 140.07 25.7233 137.725 26.9386C135.107 28.2017 132.388 29.2451 129.597 30.0579V18.4874C134.401 16.9337 138.132 15.0727 140.788 12.9044C143.448 10.731 145.581 7.98348 147.027 4.86803H158.679Z" fill="#263238"/>
<path d="M131.487 69.7122C131.261 70.1169 131.087 70.4088 130.887 70.7366C130.688 71.0645 130.488 71.3718 130.288 71.6893C129.884 72.3142 129.453 72.9186 129.018 73.523C128.14 74.7349 127.198 75.8992 126.196 77.0111C125.176 78.1519 124.079 79.2214 122.913 80.2123C121.701 81.2627 120.384 82.186 118.984 82.9679C118.543 83.225 118.083 83.4459 117.606 83.6287C117.108 83.8185 116.594 83.9625 116.07 84.0589C115.135 84.2206 114.183 84.2654 113.237 84.1921C111.6 84.0493 109.991 83.6768 108.458 83.0857C107.043 82.5461 105.673 81.8953 104.361 81.1394C103.071 80.4031 101.838 79.571 100.673 78.6501C100.343 78.3824 100.119 78.0063 100.041 77.5888C99.9626 77.1713 100.035 76.7396 100.245 76.3706C100.456 76.0015 100.79 75.7192 101.189 75.5738C101.589 75.4285 102.026 75.4296 102.425 75.5769L102.517 75.6128C104.928 76.577 107.418 77.3327 109.959 77.8716C111.079 78.1049 112.223 78.1996 113.365 78.1533C113.811 78.134 114.253 78.053 114.676 77.9125C114.835 77.8609 114.987 77.794 115.132 77.7128C115.276 77.6308 115.301 77.6052 115.593 77.4055C117.554 75.9645 119.312 74.2677 120.823 72.3603C121.627 71.3769 122.411 70.3576 123.153 69.2871C123.532 68.7749 123.891 68.2269 124.255 67.6942L124.767 66.8952L125.248 66.1422L125.33 66.0142C125.837 65.2388 126.625 64.6899 127.528 64.4823C128.431 64.2748 129.379 64.4249 130.174 64.9011C130.968 65.3772 131.548 66.1426 131.791 67.0366C132.034 67.9307 131.921 68.884 131.476 69.6969L131.487 69.7122Z" fill="#FF8B7B"/>
<path d="M103.275 75.9969L99.3463 73.395L97.6816 78.6194C98.4688 79.0343 99.3532 79.2295 100.242 79.1844C101.131 79.1393 101.991 78.8557 102.732 78.3633L103.275 75.9969Z" fill="#FF8B7B"/>
<path d="M95.7251 74.1786L95.4178 75.8433C95.3621 76.1384 95.3912 76.4433 95.5019 76.7225C95.6125 77.0018 95.8 77.2439 96.0427 77.4209L97.6664 78.6194L99.331 73.395L97.7534 72.934C97.5383 72.8707 97.3122 72.8533 97.0899 72.8829C96.8676 72.9125 96.6539 72.9884 96.4627 73.1057C96.2716 73.223 96.1072 73.3791 95.9801 73.5639C95.853 73.7487 95.7662 73.9582 95.7251 74.1786Z" fill="#FF8B7B"/>
<path d="M131.61 61.389C127.609 62.019 123.563 66.7159 121.13 71.0952C122.728 73.8805 125.149 76.1028 128.06 77.4567C128.06 77.4567 132.803 72.9698 134.719 69.6508C136.634 66.3317 135.374 60.7898 131.61 61.389Z" fill="#37474F"/>
<path opacity="0.2" d="M131.61 61.389C127.609 62.019 123.563 66.7159 121.13 71.0952C122.728 73.8805 125.149 76.1028 128.06 77.4567C128.06 77.4567 132.803 72.9698 134.719 69.6508C136.634 66.3317 135.374 60.7898 131.61 61.389Z" fill="black"/>
<path d="M121.284 70.0913C120.913 70.511 120.623 70.9954 120.428 71.5203C121.427 73.0569 123.799 77.1545 128.224 78.0252C128.654 77.7849 128.983 77.3975 129.151 76.9342C129.151 76.9342 124.06 74.4245 121.284 70.0913Z" fill="#263238"/>
<path d="M147.729 61.2507C142.893 60.4413 137.969 60.3 133.095 60.8307C129.458 61.2968 126.744 64.6415 126.769 68.3037C126.788 72.1247 127.13 75.9372 127.794 79.7001C126.457 86.7428 125.976 96.3158 127.384 98.4261L152.579 98.7795C153.66 95.7677 152.302 82.7323 153.742 69.1232C153.937 67.2908 153.422 65.4533 152.304 63.9888C151.185 62.5244 149.548 61.5444 147.729 61.2507Z" fill="#37474F"/>
<path opacity="0.2" d="M138.238 98.4568C136.798 87.1219 138.238 68.1654 138.238 67.9708L138.75 68.0118C138.75 68.2013 137.321 87.1065 138.75 98.3902L138.238 98.4568Z" fill="black"/>
<path d="M135.497 61.1842C136.363 60.8615 136.04 60.38 136.04 60.38C136.04 60.38 132.106 60.38 129.382 61.1125C128.967 61.5529 129.412 62.1368 129.412 62.1368C129.412 62.1368 132.921 62.1471 135.497 61.1842Z" fill="#263238"/>
<path opacity="0.2" d="M137.106 60.3954C137.106 60.3954 135.482 63.3969 137.654 66.1269C135.933 66.1269 134.821 69.0618 134.821 69.0618C134.821 69.0618 131.461 64.3905 135.759 60.6566C135.999 60.2827 137.106 60.3954 137.106 60.3954Z" fill="black"/>
<path d="M135.369 61.85C134.949 63.6837 138.642 67.141 138.642 67.141C138.642 67.141 145.173 63.9859 145.588 62.1778L135.369 61.85Z" fill="white"/>
<path opacity="0.2" d="M150.11 72.5806C149.414 73.9225 150.341 79.7513 153.03 82.215C153.061 79.8077 153.132 77.2518 153.286 74.6242L150.11 72.5806Z" fill="black"/>
<path d="M144.225 51.3039L137.485 55.7293C138.284 57.6859 138.658 59.7244 136.353 60.6669C136.057 60.7858 135.803 60.9905 135.625 61.2548C135.446 61.5191 135.35 61.8307 135.35 62.1497C135.35 62.4686 135.446 62.7803 135.625 63.0445C135.803 63.3088 136.057 63.5136 136.353 63.6325C137.032 63.8795 137.742 64.0295 138.463 64.0781C140.63 64.2883 142.814 63.9354 144.804 63.0537C145.014 62.949 145.198 62.7998 145.344 62.6166C145.49 62.4335 145.595 62.2207 145.65 61.993C145.706 61.7654 145.711 61.5284 145.666 61.2985C145.62 61.0686 145.526 60.8513 145.388 60.6617C143.621 58.1622 143.836 53.8188 144.225 51.3039Z" fill="#FF8B7B"/>
<path opacity="0.2" d="M141.48 53.1068L137.49 55.7241C137.714 56.2594 137.885 56.8152 138.002 57.3837C139.595 57.2915 141.674 56.0315 141.715 54.7151C141.755 54.1683 141.674 53.6194 141.48 53.1068Z" fill="black"/>
<path d="M136.742 42.8629C138.458 42.827 138.924 45.2907 138.278 46.1256C139.579 46.4073 140.209 47.9285 139.815 48.6865C139.421 49.4446 137.915 50.3 136.573 49.9619C134.273 49.3883 133.879 47.4778 134.524 46.607C133.295 45.5929 133.92 42.4685 136.742 42.8629Z" fill="#263238"/>
<path opacity="0.2" d="M136.742 42.8629C138.458 42.827 138.924 45.2907 138.278 46.1256C139.579 46.4073 140.209 47.9285 139.815 48.6865C139.421 49.4446 137.915 50.3 136.573 49.9619C134.273 49.3883 133.879 47.4778 134.524 46.607C133.295 45.5929 133.92 42.4685 136.742 42.8629Z" fill="white"/>
<path d="M146.433 46.9246C145.921 50.9658 145.823 53.3578 143.636 55.2939C140.343 58.198 135.441 55.9649 134.744 51.8365C134.109 48.1231 135.057 42.1355 139.139 40.8141C140.044 40.5262 141.006 40.4716 141.937 40.6551C142.868 40.8387 143.738 41.2546 144.466 41.8641C145.193 42.4736 145.755 43.2571 146.099 44.1418C146.443 45.0265 146.558 45.9837 146.433 46.9246Z" fill="#FF8B7B"/>
<path d="M145.946 50.0131C144.23 50.0131 143.851 47.5136 144.507 46.7043C143.216 46.3714 142.642 44.8297 143.042 44.0716C143.441 43.3136 144.993 42.5351 146.325 42.909C148.604 43.5646 148.937 45.4699 148.277 46.3356C149.506 47.4112 148.753 50.4946 145.946 50.0131Z" fill="#263238"/>
<path opacity="0.2" d="M145.946 50.0131C144.23 50.0131 143.851 47.5136 144.507 46.7043C143.216 46.3714 142.642 44.8297 143.042 44.0716C143.441 43.3136 144.993 42.5351 146.325 42.909C148.604 43.5646 148.937 45.4699 148.277 46.3356C149.506 47.4112 148.753 50.4946 145.946 50.0131Z" fill="white"/>
<path opacity="0.2" d="M141.823 47.5904C142.029 47.5344 142.244 47.5196 142.456 47.5469C142.668 47.5741 142.872 47.6429 143.057 47.7492C142.639 47.7759 142.22 47.722 141.823 47.5904Z" fill="black"/>
<path opacity="0.2" d="M141.823 47.867C142.018 47.8561 142.213 47.888 142.394 47.9605C142.576 48.0331 142.739 48.1446 142.873 48.287C142.497 48.2223 142.139 48.0792 141.823 47.867Z" fill="black"/>
<path opacity="0.2" d="M135.405 47.278C135.358 47.2502 135.306 47.2322 135.251 47.2251C135.197 47.218 135.142 47.222 135.089 47.2369C135.037 47.2517 134.988 47.2771 134.945 47.3114C134.902 47.3458 134.867 47.3884 134.842 47.4368C135.043 47.4603 135.246 47.4032 135.405 47.278Z" fill="black"/>
<path opacity="0.2" d="M135.41 47.5904C135.41 47.5904 135.098 47.5444 134.934 48.0105C135.13 47.9193 135.295 47.7734 135.41 47.5904Z" fill="black"/>
<path d="M147.652 51.0427C147.182 51.8881 146.41 52.5247 145.49 52.8251C144.322 53.1632 143.856 51.9953 144.276 50.7763C144.661 49.6853 145.721 48.1897 146.837 48.3895C147.954 48.5892 148.266 49.9619 147.652 51.0427Z" fill="#FF8B7B"/>
<path d="M141.003 47.5904C141.003 47.9182 140.793 48.1743 140.573 48.159C140.353 48.1436 140.199 47.8619 140.225 47.529C140.251 47.196 140.435 46.9451 140.655 46.9604C140.875 46.9758 141.029 47.2677 141.003 47.5904Z" fill="#263238"/>
<path d="M139.364 53.6088C138.944 53.6907 138.56 53.5268 138.509 53.2502C138.458 52.9737 138.765 52.6868 139.185 52.6049C139.605 52.5229 139.989 52.6868 140.041 52.9634C140.092 53.24 139.774 53.5319 139.364 53.6088Z" fill="#263238"/>
<path d="M136.522 47.237C136.522 47.5648 136.307 47.8209 136.092 47.8056C135.876 47.7902 135.713 47.5085 135.738 47.1756C135.764 46.8426 135.953 46.5917 136.168 46.607C136.383 46.6224 136.542 46.9041 136.522 47.237Z" fill="#263238"/>
<path d="M137.541 50.5356C135.144 50.6995 134.683 51.8673 135.103 52.3795C135.523 52.8917 136.547 52.3795 136.547 52.3795C136.547 52.3795 138.489 52.7944 139.057 52.1746C139.974 52.5639 141.372 51.8366 140.978 51.2834C140.583 50.7302 139.595 50.3922 137.541 50.5356Z" fill="#263238"/>
<path opacity="0.2" d="M137.541 50.5356C135.144 50.6995 134.683 51.8673 135.103 52.3795C135.523 52.8917 136.547 52.3795 136.547 52.3795C136.547 52.3795 138.489 52.7944 139.057 52.1746C139.974 52.5639 141.372 51.8366 140.978 51.2834C140.583 50.7302 139.595 50.3922 137.541 50.5356Z" fill="white"/>
<path d="M137.613 47.5904C137.152 48.5712 136.557 49.4831 135.846 50.3C136.061 50.4779 136.312 50.6071 136.581 50.6787C136.851 50.7504 137.133 50.7627 137.408 50.7149L137.613 47.5904Z" fill="#FF5652"/>
<path d="M141.726 45.8695C141.758 45.8655 141.789 45.855 141.818 45.8387C141.839 45.8247 141.858 45.8066 141.873 45.7853C141.887 45.764 141.898 45.7401 141.903 45.7148C141.908 45.6895 141.908 45.6635 141.903 45.6382C141.898 45.6128 141.888 45.5887 141.874 45.5673C141.711 45.3021 141.486 45.0803 141.218 44.9207C140.951 44.7611 140.649 44.6684 140.338 44.6504C140.286 44.6504 140.236 44.6709 140.2 44.7074C140.163 44.7439 140.143 44.7935 140.143 44.8451C140.143 44.8967 140.163 44.9462 140.2 44.9827C140.236 45.0192 140.286 45.0397 140.338 45.0397C140.583 45.0575 140.82 45.1338 141.029 45.2621C141.239 45.3904 141.414 45.5671 141.541 45.7773C141.56 45.8084 141.588 45.8335 141.62 45.8498C141.653 45.8661 141.689 45.8729 141.726 45.8695Z" fill="#263238"/>
<path d="M135.052 45.4853C135.084 45.4847 135.115 45.4765 135.144 45.4614C135.172 45.4463 135.197 45.4246 135.215 45.3983C135.347 45.1931 135.525 45.022 135.735 44.8991C135.945 44.7763 136.181 44.7051 136.424 44.6914C136.476 44.6914 136.525 44.6709 136.562 44.6344C136.598 44.5979 136.619 44.5484 136.619 44.4968C136.619 44.4452 136.598 44.3957 136.562 44.3592C136.525 44.3227 136.476 44.3022 136.424 44.3022C136.116 44.3145 135.816 44.401 135.548 44.5544C135.281 44.7078 135.054 44.9235 134.888 45.1831C134.873 45.2042 134.864 45.2279 134.859 45.2528C134.854 45.2777 134.854 45.3034 134.859 45.3282C134.865 45.3531 134.875 45.3766 134.889 45.3974C134.904 45.4183 134.923 45.436 134.944 45.4495C134.975 45.4735 135.013 45.4861 135.052 45.4853Z" fill="#263238"/>
<path d="M141.664 140.196C142.811 121.716 142.555 102.754 140.563 98.6258L127.374 98.4261C127.374 98.4261 129.018 129.322 129.53 141.63C130.068 154.435 131.215 187.728 131.215 187.728L138.847 187.82C138.847 187.82 143.324 154.491 141.664 140.196Z" fill="#263238"/>
<path opacity="0.2" d="M142.233 111.948C137.73 116.865 139.836 130.479 141.797 137.978C142.335 128.6 142.479 119.262 142.233 111.948Z" fill="black"/>
<path d="M138.75 188.783L132.04 188.696C131.615 188.674 131.196 188.799 130.852 189.049C128.905 190.586 127.425 190.632 125.217 191.026C122.569 191.503 123.881 194.166 125.832 194.197C129.059 194.248 128.787 194.13 131.543 194.171L133.448 194.197L134.309 193.321L135.072 194.197H138.596C138.687 194.199 138.778 194.181 138.863 194.145C138.947 194.109 139.022 194.056 139.084 193.989C139.146 193.921 139.193 193.842 139.222 193.755C139.251 193.668 139.261 193.576 139.252 193.485L138.75 188.783Z" fill="#263238"/>
<path d="M139.262 189.469C139.144 189.469 130.457 189.193 130.457 189.193L130.104 186.073L139.738 186.288L139.262 189.469Z" fill="#37474F"/>
<path d="M157.153 140.196C155.739 121.716 155.14 102.908 152.579 98.7795L136.675 98.5746C136.675 98.5746 143.001 129.306 145.224 141.63C147.534 154.435 153.752 187.728 153.752 187.728L161.399 187.82C161.399 187.82 160.774 154.491 157.153 140.196Z" fill="#263238"/>
<path d="M161.763 188.783L155.048 188.696C154.625 188.675 154.207 188.8 153.865 189.049C151.918 190.586 152.81 190.632 150.602 191.026C147.954 191.503 149.26 194.166 151.212 194.197C154.438 194.248 154.172 194.13 156.923 194.171L159.914 194.197L160.308 193.321L160.82 194.197H161.609C161.699 194.197 161.789 194.177 161.871 194.141C161.953 194.104 162.027 194.05 162.087 193.983C162.148 193.916 162.193 193.837 162.221 193.751C162.249 193.665 162.259 193.575 162.249 193.485L161.763 188.783Z" fill="#263238"/>
<path d="M162.27 189.469C162.147 189.469 153.424 189.193 153.424 189.193L152.579 186.053L162.244 186.268L162.27 189.469Z" fill="#37474F"/>
<path d="M137.372 60.0317C137.372 60.0317 135.482 63.3968 137.654 66.1269C135.933 66.1269 134.806 67.9913 134.806 67.9913C134.806 67.9913 132.516 63.3815 135.902 60.3083C136.138 59.96 137.372 60.0317 137.372 60.0317Z" fill="#37474F"/>
<path d="M153.26 100.183C144.261 100.557 133.94 100.669 127.487 100.183C127.451 100.182 127.417 100.172 127.386 100.155C127.354 100.138 127.328 100.114 127.307 100.086C126.884 99.3685 126.689 98.5395 126.749 97.709C126.754 97.6479 126.782 97.591 126.828 97.5501C126.874 97.5092 126.933 97.4872 126.995 97.4887C135.513 97.7192 143.979 97.709 152.881 97.4887C152.93 97.4878 152.978 97.5014 153.019 97.5279C153.06 97.5544 153.092 97.5924 153.112 97.6373C153.409 98.3746 153.539 99.169 153.491 99.9627C153.487 100.022 153.461 100.077 153.418 100.118C153.376 100.158 153.319 100.182 153.26 100.183Z" fill="#263238"/>
<path opacity="0.2" d="M153.26 100.183C144.261 100.557 133.94 100.669 127.487 100.183C127.451 100.182 127.417 100.172 127.386 100.155C127.354 100.138 127.328 100.114 127.307 100.086C126.884 99.3685 126.689 98.5395 126.749 97.709C126.754 97.6479 126.782 97.591 126.828 97.5501C126.874 97.5092 126.933 97.4872 126.995 97.4887C135.513 97.7192 143.979 97.709 152.881 97.4887C152.93 97.4878 152.978 97.5014 153.019 97.5279C153.06 97.5544 153.092 97.5924 153.112 97.6373C153.409 98.3746 153.539 99.169 153.491 99.9627C153.487 100.022 153.461 100.077 153.418 100.118C153.376 100.158 153.319 100.182 153.26 100.183Z" fill="black"/>
<path d="M135.677 97.3453C135.57 98.4777 135.662 99.6199 135.948 100.721C137.9 101.023 141.905 100.798 141.905 100.798C141.963 99.6625 141.922 98.5245 141.782 97.3965C138.709 97.2736 135.677 97.3453 135.677 97.3453Z" fill="white"/>
<path d="M153.67 66.3983L153.962 66.6595L154.193 66.8747L154.628 67.2947C154.91 67.5713 155.166 67.8479 155.427 68.1296C155.939 68.6879 156.426 69.2666 156.887 69.8505C157.808 71.0068 158.663 72.2141 159.448 73.4667C160.977 75.941 162.268 78.5546 163.305 81.2725C163.443 81.6362 163.55 81.8565 163.745 82.4762C163.899 82.9778 164.009 83.492 164.073 84.0128C164.167 84.9245 164.155 85.8441 164.037 86.7531C163.817 88.3191 163.404 89.8519 162.808 91.3167C162.262 92.6763 161.622 93.9959 160.892 95.2658C160.177 96.5136 159.378 97.7115 158.5 98.8512C158.239 99.1857 157.868 99.4169 157.453 99.5037C157.038 99.5904 156.605 99.5271 156.232 99.3249C155.859 99.1228 155.57 98.7949 155.416 98.3996C155.262 98.0043 155.253 97.5672 155.391 97.166L155.422 97.079C156.31 94.674 157.034 92.2115 157.588 89.7084C157.84 88.5903 157.97 87.4484 157.978 86.3023C157.979 85.8584 157.924 85.4161 157.814 84.986C157.688 84.5964 157.516 84.2232 157.302 83.8745C156.172 81.61 154.89 79.4247 153.465 77.3338C152.764 76.3094 152.016 75.285 151.247 74.3528C150.863 73.8713 150.464 73.4154 150.069 72.9647L149.475 72.3142L149.188 72.012L149.055 71.8737L148.968 71.7918C148.25 71.1676 147.81 70.2837 147.743 69.3347C147.677 68.3857 147.991 67.4492 148.615 66.7313C149.239 66.0133 150.123 65.5728 151.072 65.5065C152.021 65.4402 152.957 65.7536 153.675 66.3778L153.67 66.3983Z" fill="#FF8B7B"/>
<path d="M149.255 61.9627C153.245 62.6542 157.22 67.4074 159.591 71.8225C157.956 74.5824 155.506 76.7687 152.579 78.0816C152.579 78.0816 147.898 73.523 146.028 70.1835C144.158 66.844 145.5 61.3122 149.255 61.9627Z" fill="#37474F"/>
<path d="M159.453 70.8135C159.816 71.2407 160.099 71.73 160.288 72.2579C159.263 73.7945 156.836 77.8562 152.395 78.6501C151.969 78.4022 151.648 78.0095 151.488 77.5438C151.488 77.5438 156.615 75.1057 159.453 70.8135Z" fill="#263238"/>
<path d="M146.366 61.6042C145.542 61.2508 145.854 60.7847 145.854 60.7847C145.854 60.7847 149.649 60.9178 152.246 61.7425C152.63 62.1983 152.18 62.7669 152.18 62.7669C152.18 62.7669 148.814 62.6542 146.366 61.6042Z" fill="#263238"/>
<path opacity="0.2" d="M145.372 60.6822C145.372 60.6822 144.512 63.6837 140.578 66.132C142.299 66.132 143.452 69.2718 143.452 69.2718C143.452 69.2718 147.037 65.0615 146.207 60.9076C145.967 60.5388 145.372 60.6822 145.372 60.6822Z" fill="black"/>
<path d="M145.26 60.1393C145.26 60.1393 144.235 63.3866 140.578 66.132C142.299 66.132 143.493 67.9913 143.493 67.9913C143.493 67.9913 147.017 65.0615 146.207 60.9076C145.939 60.5974 145.619 60.3373 145.26 60.1393Z" fill="#37474F"/>
<path d="M148.948 72.4679C148.712 76.8933 145.91 77.9484 145.516 77.9484C145.122 77.9484 142.443 76.8933 142.678 72.4679L145.88 71.2079L148.948 72.4679Z" fill="white"/>
<path d="M155.842 96.8126L152.687 99.5273L156.871 102.247C156.871 102.247 159.432 99.4402 158.162 97.8421L155.842 96.8126Z" fill="#FF8B7B"/>
<path d="M152.333 103.835L153.957 104.537C154.27 104.673 154.622 104.694 154.949 104.595C155.277 104.497 155.558 104.285 155.744 103.999L156.871 102.247L152.687 99.5273L151.596 101.909C151.516 102.084 151.471 102.272 151.465 102.464C151.459 102.656 151.491 102.847 151.56 103.027C151.629 103.206 151.733 103.37 151.865 103.509C151.998 103.647 152.157 103.758 152.333 103.835Z" fill="#FF8B7B"/>
<path d="M134.498 42.0229C131.686 42.407 132.629 43.2982 138.898 44.0973C145.168 44.8963 146.74 44.2663 146.74 44.2663C146.74 44.2663 139.538 42.0075 134.498 42.0229Z" fill="#263238"/>
<path d="M148.681 45.4853C148.681 45.4853 143.175 43.247 134.499 42.0229C134.391 40.7475 135.441 39.3953 135.441 39.3953C135.441 39.3953 133.505 38.4272 134.104 36.5782C134.703 34.7292 137.474 34.9699 140.706 33.505C141.89 34.806 145.142 36.9214 147.365 37.1928C147.913 38.3248 149.347 41.1572 151.672 42.2482C151.637 43.4826 149.327 43.7848 149.327 43.7848C149.337 44.0969 149.285 44.4079 149.175 44.6999C149.064 44.9918 148.896 45.2588 148.681 45.4853Z" fill="#37474F"/>
<path opacity="0.3" d="M149.322 43.7848C147.309 41.9563 140.158 38.6167 135.441 39.3953C135.441 39.3953 134.391 40.7526 134.499 42.0229C143.175 43.247 148.681 45.4853 148.681 45.4853C148.895 45.2584 149.062 44.9912 149.172 44.6993C149.282 44.4074 149.333 44.0965 149.322 43.7848Z" fill="black"/>
<path d="M141.536 37.2645C140.916 40.4197 138.765 40.9882 138.463 40.9575C138.161 40.9267 136.317 39.9945 136.926 36.8599L139.4 36.1735L141.536 37.2645Z" fill="white"/>
<path d="M100.719 88.9658C100.406 88.9655 100.104 88.8508 99.8703 88.6432C99.6363 88.4356 99.4864 88.1495 99.4488 87.8389L95.7917 58.0342C95.7503 57.6945 95.8455 57.3524 96.0563 57.083C96.2671 56.8135 96.5764 56.6389 96.916 56.5974C97.2556 56.556 97.5978 56.6512 97.8672 56.862C98.1366 57.0729 98.3113 57.3821 98.3527 57.7217L101.989 87.5419C102.011 87.7088 101.999 87.8783 101.955 88.0406C101.91 88.203 101.834 88.355 101.731 88.4878C101.628 88.6206 101.499 88.7317 101.353 88.8146C101.206 88.8975 101.045 88.9506 100.878 88.9709L100.719 88.9658Z" fill="#263238"/>
<path d="M99.9047 75.5564C99.5922 74.4091 100.181 74.2401 99.6127 72.6113C99.3105 71.7457 100.304 71.0747 100.427 71.7713C100.888 74.3067 104.253 75.7254 103.085 77.3286C101.918 78.9318 100.212 76.7037 99.9047 75.5564Z" fill="#FF8B7B"/>
<path d="M122.733 32.6273C123.737 16.6167 111.572 2.82329 95.5618 1.81879C79.5512 0.814295 65.7577 12.9791 64.7532 28.9897C63.7488 45.0003 75.9136 58.7938 91.9242 59.7983C107.935 60.8027 121.728 48.6379 122.733 32.6273Z" fill="#37474F"/>
<path d="M115.847 38.6375C120.174 26.4256 113.782 13.0182 101.57 8.69128C89.3582 4.3644 75.9508 10.7565 71.6239 22.9685C67.2971 35.1805 73.6892 48.5879 85.9012 52.9147C98.1131 57.2416 111.521 50.8495 115.847 38.6375Z" fill="white"/>
<path d="M108.976 26.8413C107.05 24.2393 103.342 26.8413 102.23 29.5764C101.928 30.255 101.73 30.9749 101.641 31.7123L100.417 23.3584L99.4489 15.4398C99.3469 14.7603 98.9837 14.1474 98.4367 13.7315C97.8897 13.3157 97.2021 13.1297 96.52 13.2131C95.838 13.2965 95.2154 13.6428 94.7848 14.1782C94.3542 14.7136 94.1494 15.396 94.2142 16.08L93.9735 14.1081C93.9311 13.7647 93.8215 13.433 93.6509 13.132C93.4804 12.831 93.2522 12.5665 92.9794 12.3537C92.7067 12.1408 92.3947 11.9838 92.0612 11.8915C91.7278 11.7993 91.3794 11.7736 91.036 11.816C90.6926 11.8584 90.361 11.968 90.0599 12.1385C89.7589 12.3091 89.4944 12.5372 89.2816 12.81C89.0688 13.0828 88.9117 13.3948 88.8195 13.7283C88.7272 14.0617 88.7016 14.4101 88.7439 14.7534L89.082 17.4988C89.0361 17.1272 88.9116 16.7697 88.7169 16.4499C88.5221 16.1302 88.2615 15.8555 87.9524 15.6443C87.6432 15.4331 87.2927 15.29 86.924 15.2247C86.5554 15.1595 86.177 15.1734 85.8142 15.2656C85.1928 15.4251 84.6507 15.805 84.2888 16.3346C83.9269 16.8643 83.77 17.5074 83.8473 18.1442L84.2673 21.5708C84.2222 21.1989 84.0983 20.8408 83.9037 20.5206C83.7092 20.2005 83.4485 19.9255 83.1392 19.7141C82.8299 19.5027 82.479 19.3598 82.11 19.2948C81.741 19.2299 81.3624 19.2445 80.9995 19.3376C80.379 19.496 79.8374 19.8752 79.4763 20.4041C79.1152 20.933 78.9593 21.5754 79.0378 22.211L79.8778 29.0591L80.4771 33.9711L81.271 40.4197C81.8344 45.0294 83.6322 47.6314 86.3007 48.8043C90.3983 50.6022 97.902 50.6226 101.272 47.8875C104.223 45.4955 106.118 39.7333 106.574 36.1633C107.029 32.5933 109.759 27.8913 108.976 26.8413Z" fill="#263238"/>
<path d="M113.402 10.5812L108.62 6.84356L74.0733 51.0457L78.8555 54.7833L113.402 10.5812Z" fill="#37474F"/>
<path d="M12.9746 73.2413V63.9193H19.7203V65.0052H14.209V67.8632H19.3668V68.9593H14.209V72.1298H19.92V73.231L12.9746 73.2413Z" fill="#263238"/>
<path d="M21.4819 73.2413V66.4854H22.5063V67.5098C22.6789 67.146 22.9268 66.823 23.2336 66.5622C23.4477 66.4108 23.7039 66.3302 23.9661 66.3317C24.3861 66.3433 24.7943 66.4729 25.1441 66.7056L24.7498 67.7659C24.4973 67.6091 24.2069 67.5241 23.9097 67.52C23.6669 67.5161 23.43 67.5956 23.2388 67.7454C23.0331 67.9031 22.8825 68.1218 22.8085 68.3703C22.6796 68.8041 22.6158 69.2546 22.619 69.7071V73.2413H21.4819Z" fill="#263238"/>
<path d="M25.8203 73.2413V66.4854H26.8447V67.5098C27.0237 67.1357 27.2825 66.8053 27.6028 66.5417C27.8171 66.3909 28.0731 66.3103 28.3352 66.3113C28.7552 66.3229 29.1635 66.4524 29.5133 66.6852L29.1189 67.7454C28.8664 67.5886 28.576 67.5036 28.2789 67.4995C28.036 67.4956 27.7991 67.5752 27.6079 67.7249C27.4022 67.8826 27.2516 68.1014 27.1776 68.3498C27.0488 68.7836 26.9849 69.2341 26.9881 69.6866V73.2208L25.8203 73.2413Z" fill="#263238"/>
<path d="M29.7438 69.8659C29.7438 68.6161 30.0853 67.6891 30.7682 67.0847C31.357 66.579 32.1129 66.3106 32.8887 66.3317C33.3116 66.3168 33.7329 66.3906 34.1255 66.5485C34.5181 66.7065 34.8732 66.9449 35.168 67.2486C35.4745 67.5895 35.7105 67.9876 35.8626 68.4201C36.0147 68.8526 36.0797 69.3109 36.0541 69.7686C36.0858 70.473 35.9507 71.175 35.6597 71.8174C35.4054 72.3086 35.0092 72.712 34.5226 72.9749C34.0231 73.2524 33.4601 73.3954 32.8887 73.3898C32.4649 73.4069 32.0423 73.3351 31.6479 73.179C31.2536 73.0228 30.8963 72.7858 30.5992 72.4832C29.982 71.7566 29.6748 70.8167 29.7438 69.8659ZM30.9218 69.8659C30.8697 70.5597 31.0698 71.249 31.4853 71.8071C31.6626 72.0095 31.8812 72.1717 32.1263 72.2828C32.3715 72.3939 32.6375 72.4514 32.9066 72.4514C33.1757 72.4514 33.4418 72.3939 33.6869 72.2828C33.932 72.1717 34.1506 72.0095 34.328 71.8071C34.7493 71.2361 34.9511 70.5325 34.8965 69.8249C34.9452 69.1449 34.7429 68.4707 34.328 67.9298C34.1501 67.7281 33.9314 67.5666 33.6863 67.456C33.4413 67.3454 33.1755 67.2882 32.9066 67.2882C32.6377 67.2882 32.3719 67.3454 32.1269 67.456C31.8818 67.5666 31.6631 67.7281 31.4853 67.9298C31.071 68.4865 30.871 69.1738 30.9218 69.8659V69.8659Z" fill="#263238"/>
<path d="M37.4011 73.2413V66.4854H38.4255V67.5098C38.5963 67.1449 38.8445 66.8216 39.1528 66.5622C39.3669 66.4108 39.623 66.3302 39.8853 66.3317C40.3053 66.3433 40.7135 66.4729 41.0633 66.7056L40.6689 67.7659C40.4162 67.6098 40.126 67.5248 39.8289 67.52C39.5845 67.5162 39.346 67.5956 39.1528 67.7454C38.9488 67.9037 38.8 68.1224 38.7277 68.3703C38.5964 68.8036 38.5325 69.2544 38.5382 69.7071V73.2413H37.4011Z" fill="#263238"/>
<path d="M17.2308 84.8221V83.8284C17.0025 84.189 16.685 84.4845 16.309 84.6864C15.9331 84.8883 15.5113 84.9897 15.0847 84.9808C14.702 84.9837 14.3232 84.9051 13.9732 84.7504C13.6694 84.6306 13.4026 84.4327 13.1998 84.1767C13.0265 83.9197 12.9063 83.6306 12.8464 83.3265C12.7921 82.9723 12.7698 82.6141 12.7798 82.256V78.0662H13.922V81.8103C13.9091 82.2146 13.9331 82.6192 13.9937 83.0191C14.0554 83.3034 14.2172 83.5561 14.4495 83.7311C14.7033 83.9067 15.0067 83.9965 15.3152 83.9872C15.6554 83.9881 15.9896 83.8979 16.2832 83.726C16.5701 83.562 16.7951 83.3082 16.9235 83.0038C17.0649 82.58 17.1274 82.1338 17.1078 81.6874V78.0662H18.2552V84.8221H17.2308Z" fill="#263238"/>
<path d="M20.0479 84.8221V78.0662H21.0722V79.024C21.303 78.6674 21.6228 78.3773 22.0001 78.1823C22.3775 77.9874 22.7992 77.8944 23.2235 77.9125C23.6087 77.9067 23.9908 77.9818 24.3452 78.1328C24.6488 78.2505 24.9144 78.4488 25.1135 78.7064C25.2887 78.963 25.4106 79.2521 25.472 79.5567C25.5232 79.9248 25.5438 80.2966 25.5335 80.6682V84.8221H24.3913V80.7245C24.405 80.3776 24.3582 80.031 24.253 79.7001C24.1634 79.4675 23.9972 79.2724 23.7818 79.1469C23.5399 79.0051 23.263 78.9341 22.9827 78.9421C22.5186 78.9342 22.0679 79.0984 21.7176 79.403C21.3642 79.7155 21.2054 80.3045 21.2054 81.1701V84.8579L20.0479 84.8221Z" fill="#263238"/>
<path d="M31.7004 83.9872C31.3379 84.3108 30.9219 84.569 30.4711 84.7504C30.0685 84.9022 29.6414 84.9786 29.2111 84.9757C28.5921 85.0159 27.9808 84.8201 27.5004 84.4277C27.3049 84.2544 27.1498 84.0402 27.0463 83.8003C26.9427 83.5605 26.8931 83.3008 26.9011 83.0396C26.8981 82.7318 26.9714 82.4281 27.1144 82.1555C27.2574 81.8829 27.4657 81.6499 27.7206 81.4774C27.9722 81.3055 28.251 81.1774 28.5452 81.0984C28.8832 81.0225 29.2252 80.9661 29.5696 80.9294C30.2639 80.866 30.9502 80.7339 31.6184 80.535C31.6184 80.3762 31.6184 80.2789 31.6184 80.2328C31.6373 80.0554 31.6184 79.8759 31.5627 79.7064C31.5071 79.5369 31.4161 79.3811 31.2958 79.2494C30.9233 78.963 30.4581 78.8244 29.9896 78.8601C29.5724 78.83 29.1559 78.9283 28.7962 79.1418C28.4934 79.4068 28.2924 79.769 28.2277 80.1662L27.1111 80.0125C27.1867 79.5912 27.3624 79.1943 27.6233 78.855C27.8918 78.5337 28.2476 78.2971 28.6477 78.1738C29.1421 78.0052 29.662 77.9237 30.1843 77.933C30.6623 77.9164 31.1394 77.9858 31.5928 78.1379C31.8976 78.2366 32.1712 78.4131 32.3867 78.6501C32.5673 78.8769 32.6903 79.144 32.7453 79.4286C32.7915 79.7783 32.8104 80.1311 32.8016 80.4838V82.0204C32.7844 82.7041 32.8083 83.3883 32.8733 84.0691C32.926 84.353 33.0246 84.6263 33.1653 84.8784H31.9667C31.8209 84.6015 31.7304 84.2988 31.7004 83.9872V83.9872ZM31.6031 81.4262C30.9984 81.6405 30.3711 81.7849 29.7335 81.8564C29.3841 81.892 29.0402 81.9694 28.7092 82.0869C28.5246 82.1632 28.3674 82.2935 28.2584 82.4608C28.1523 82.6218 28.097 82.811 28.0996 83.0038C28.0968 83.1484 28.1262 83.2919 28.1855 83.4239C28.2449 83.5559 28.3327 83.673 28.4428 83.7669C28.734 83.9935 29.0994 84.1031 29.4672 84.0743C29.8787 84.0817 30.2849 83.9811 30.6453 83.7823C30.9745 83.6032 31.2396 83.3256 31.4033 82.9884C31.5451 82.6251 31.6079 82.2357 31.5877 81.8462L31.6031 81.4262Z" fill="#263238"/>
<path d="M38.9684 84.8221V83.8284C38.7401 84.189 38.4226 84.4845 38.0467 84.6864C37.6707 84.8883 37.249 84.9897 36.8223 84.9808C36.4381 84.9832 36.0576 84.9046 35.7057 84.7504C35.4041 84.6292 35.1393 84.4315 34.9374 84.1767C34.7599 83.922 34.6394 83.632 34.584 83.3265C34.5274 82.9726 34.5034 82.6142 34.5123 82.256V78.0662H35.6596V81.8103C35.6468 82.2146 35.6708 82.6192 35.7313 83.0191C35.7931 83.3034 35.9548 83.5561 36.1872 83.7311C36.4409 83.9067 36.7443 83.9965 37.0528 83.9872C37.393 83.9881 37.7273 83.8979 38.0208 83.726C38.3077 83.562 38.5327 83.3082 38.6611 83.0038C38.8026 82.58 38.8651 82.1338 38.8455 81.6874V78.0662H39.9928V84.8221H38.9684Z" fill="#263238"/>
<path d="M44.285 83.7977L44.4541 84.8221C44.1701 84.8875 43.8799 84.9218 43.5885 84.9245C43.2546 84.9417 42.9217 84.8748 42.6204 84.7299C42.4079 84.6151 42.2375 84.4358 42.1338 84.2177C42.0133 83.7794 41.9666 83.3242 41.9955 82.8706V78.983H41.1555V78.0662H41.9955V76.3913L43.1326 75.705V78.0662H44.285V78.9574H43.1326V82.9321C43.1188 83.144 43.1395 83.3568 43.1941 83.5621C43.2345 83.6555 43.3047 83.733 43.3938 83.7823C43.5132 83.8463 43.6478 83.8764 43.7831 83.8694C43.9519 83.8575 44.1197 83.8335 44.285 83.7977V83.7977Z" fill="#263238"/>
<path d="M45.4067 84.8221V75.4949H46.5541V78.8345C46.7998 78.5377 47.1094 78.3002 47.4597 78.1397C47.81 77.9792 48.192 77.8998 48.5772 77.9074C49.0306 77.8953 49.4798 77.9975 49.8833 78.2045C50.2305 78.381 50.5096 78.6673 50.6773 79.0189C50.861 79.5093 50.9412 80.0325 50.9129 80.5555V84.8374H49.7707V80.5555C49.8089 80.1065 49.6753 79.6598 49.3968 79.3057C49.2578 79.1708 49.0921 79.0665 48.9104 78.9994C48.7287 78.9324 48.5349 78.9041 48.3416 78.9164C48.0048 78.9163 47.674 79.0065 47.3838 79.1776C47.0987 79.34 46.8754 79.5921 46.7487 79.8947C46.6036 80.293 46.5375 80.7158 46.5541 81.1394V84.8374L45.4067 84.8221Z" fill="#263238"/>
<path d="M52.2242 81.4416C52.2242 80.1918 52.5657 79.2664 53.2486 78.6654C53.8392 78.1595 54.5968 77.8911 55.3742 77.9125C55.7999 77.897 56.2241 77.971 56.6194 78.1298C57.0147 78.2887 57.3722 78.5287 57.6689 78.8345C57.976 79.176 58.2124 79.575 58.3645 80.0084C58.5166 80.4418 58.5813 80.901 58.555 81.3596C58.5864 82.0635 58.4531 82.7651 58.1657 83.4084C57.9114 83.9026 57.5131 84.3081 57.0235 84.5711C56.5256 84.8479 55.9644 84.9909 55.3947 84.986C54.9696 85.0038 54.5456 84.9318 54.1502 84.7747C53.7548 84.6176 53.397 84.3789 53.1 84.0743C52.4711 83.3472 52.1562 82.4005 52.2242 81.4416ZM53.4022 81.4416C53.3503 82.1369 53.5503 82.8278 53.9657 83.3879C54.1409 83.595 54.36 83.7604 54.6073 83.872C54.8545 83.9837 55.1235 84.0388 55.3947 84.0333C55.6649 84.0384 55.9327 83.9827 56.1784 83.87C56.424 83.7574 56.6411 83.5909 56.8135 83.3828C57.2318 82.8124 57.4317 82.1109 57.3769 81.4057C57.4259 80.7241 57.2237 80.0481 56.8084 79.5055C56.631 79.3031 56.4124 79.1409 56.1673 79.0298C55.9222 78.9187 55.6561 78.8612 55.387 78.8612C55.1179 78.8612 54.8519 78.9187 54.6067 79.0298C54.3616 79.1409 54.1431 79.3031 53.9657 79.5055C53.5493 80.0611 53.3491 80.7492 53.4022 81.4416V81.4416Z" fill="#263238"/>
<path d="M59.8712 84.8221V78.0662H60.8956V79.0906C61.065 78.7248 61.3134 78.4012 61.6229 78.143C61.837 77.9915 62.0931 77.9109 62.3554 77.9125C62.7749 77.9223 63.1832 78.0501 63.5334 78.2813L63.139 79.3467C62.8879 79.1863 62.597 79.0994 62.299 79.0957C62.0564 79.0934 61.8201 79.1728 61.6281 79.3211C61.4236 79.48 61.2733 79.6982 61.1978 79.9459C61.0694 80.3798 61.0055 80.8303 61.0083 81.2828V84.8221H59.8712Z" fill="#263238"/>
<path d="M64.2402 76.8113V75.4949H65.3876V76.8113H64.2402ZM64.2402 84.8221V78.0662H65.3876V84.8221H64.2402Z" fill="#263238"/>
<path d="M66.5298 84.8221V83.895L70.8322 78.9574C70.32 78.9574 69.9103 78.9933 69.5415 78.9933H66.7859V78.0662H72.3074V78.8345L68.6503 83.1216L67.9434 83.9052C68.4556 83.8643 68.9371 83.8438 69.3878 83.8438H72.5123V84.8323L66.5298 84.8221Z" fill="#263238"/>
<path d="M78.2693 82.6452L79.4524 82.7937C79.3021 83.43 78.9411 83.9968 78.428 84.402C77.8654 84.8012 77.1864 85.0029 76.4971 84.9757C76.0626 84.998 75.6284 84.9278 75.2231 84.7697C74.8178 84.6117 74.4507 84.3694 74.1461 84.0589C73.5297 83.3533 73.2167 82.4329 73.2753 81.4979C73.2162 80.5346 73.5319 79.5857 74.1563 78.8498C74.4454 78.5385 74.7981 78.2932 75.1906 78.1305C75.583 77.9679 76.0059 77.8918 76.4305 77.9074C76.8446 77.8933 77.2569 77.9684 77.6395 78.1274C78.0222 78.2865 78.3662 78.5258 78.6483 78.8293C79.2561 79.5531 79.5623 80.4829 79.5037 81.4262C79.5037 81.4928 79.5037 81.5952 79.5037 81.7335H74.4636C74.4656 82.3571 74.6889 82.9597 75.0936 83.434C75.2745 83.6266 75.4938 83.779 75.7373 83.8813C75.9809 83.9837 76.2432 84.0337 76.5073 84.0281C76.8927 84.0382 77.2706 83.9212 77.5829 83.6952C77.9086 83.4191 78.1471 83.0543 78.2693 82.6452V82.6452ZM74.5097 80.7962H78.2795C78.2672 80.336 78.1173 79.89 77.8493 79.5157C77.6799 79.3034 77.4637 79.1332 77.2175 79.0186C76.9713 78.9039 76.7019 78.8479 76.4305 78.8549C76.1862 78.8465 75.9428 78.8875 75.7149 78.9756C75.4869 79.0636 75.2791 79.1968 75.1039 79.3671C74.7298 79.7496 74.5171 80.2612 74.5097 80.7962V80.7962Z" fill="#263238"/>
<path d="M85.2711 84.8221V83.9565C85.078 84.282 84.8003 84.5492 84.4675 84.7296C84.1347 84.9099 83.7593 84.9968 83.3811 84.9808C82.8527 84.9832 82.3355 84.8281 81.8957 84.5352C81.436 84.2269 81.0722 83.7956 80.8457 83.2906C80.5904 82.7136 80.4645 82.0877 80.4769 81.4569C80.4685 80.8278 80.5833 80.2031 80.815 79.6181C81.0142 79.1002 81.3729 78.6589 81.8394 78.3581C82.287 78.0663 82.8108 77.9131 83.3452 77.9176C83.7245 77.9113 84.0994 77.9993 84.4362 78.1737C84.7403 78.3377 85.0044 78.5668 85.2096 78.8447V75.5001H86.3518V84.8272L85.2711 84.8221ZM81.655 81.4518C81.601 82.1411 81.7934 82.8272 82.1979 83.3879C82.3506 83.5857 82.5459 83.7465 82.7694 83.8582C82.9929 83.97 83.2388 84.0298 83.4886 84.0333C83.734 84.0345 83.9763 83.9798 84.1973 83.8733C84.4183 83.7668 84.6121 83.6113 84.764 83.4186C85.1521 82.8745 85.3337 82.2099 85.2762 81.544C85.3434 80.8227 85.1627 80.1 84.764 79.4952C84.61 79.2922 84.4109 79.1277 84.1825 79.0149C83.954 78.902 83.7025 78.8437 83.4477 78.8447C83.2011 78.8423 82.9574 78.8976 82.7359 79.0061C82.5145 79.1146 82.3215 79.2733 82.1723 79.4696C81.7782 80.0517 81.5956 80.7514 81.655 81.4518V81.4518Z" fill="#263238"/>
</svg>
