<svg width="200" height="200" viewBox="0 0 200 200" fill="none" xmlns="http://www.w3.org/2000/svg">
<path d="M18.745 47.3663C10.0533 70.5196 17.5593 101.775 30.9883 126.227C65.5963 189.713 149.813 153.817 148.36 124.985C150.335 97.4797 125.599 89.31 117.208 73.8896C70.2201 -13.1523 25.729 27.844 18.745 47.3663Z" fill="#37474F"/>
<path opacity="0.9" d="M18.745 47.3663C10.0533 70.5196 17.5593 101.775 30.9883 126.227C65.5963 189.713 149.813 153.817 148.36 124.985C150.335 97.4797 125.599 89.31 117.208 73.8896C70.2201 -13.1523 25.729 27.844 18.745 47.3663Z" fill="white"/>
<path d="M43.1351 127.793H8.61227V112.208L43.1351 71.1663H59.6562V113.093H68.2174V127.793H59.6562V140.547H43.1351V127.793ZM43.1351 113.093V91.6248L24.8894 113.093H43.1351Z" fill="#37474F"/>
<path d="M74.1235 106.16C74.1235 93.1906 76.4571 84.1131 81.1245 78.9276C85.7918 73.7421 92.9044 71.1512 102.462 71.155C107.05 71.155 110.819 71.7223 113.769 72.857C116.449 73.8227 118.904 75.3268 120.98 77.2766C122.731 78.948 124.214 80.8788 125.377 83.0011C126.528 85.2171 127.396 87.5693 127.959 90.0022C129.241 95.1995 129.882 100.535 129.865 105.888C129.865 118.263 127.771 127.32 123.584 133.058C119.397 138.796 112.187 141.666 101.952 141.67C96.2101 141.67 91.5712 140.755 88.0347 138.924C84.4699 137.064 81.4671 134.284 79.3373 130.874C77.692 128.362 76.4117 124.926 75.4964 120.565C74.5462 115.823 74.0861 110.996 74.1235 106.16ZM92.9252 106.205C92.9252 114.905 93.6911 120.837 95.223 124.003C96.7548 127.169 98.9807 128.759 101.901 128.774C102.827 128.785 103.747 128.611 104.606 128.263C105.465 127.916 106.246 127.401 106.905 126.749C108.319 125.399 109.359 123.266 110.025 120.349C110.691 117.433 111.023 112.894 111.023 106.733C111.023 97.6783 110.256 91.5907 108.72 88.4703C107.184 85.3499 104.881 83.7916 101.81 83.7954C98.6781 83.7954 96.4087 85.3859 95.0017 88.5668C93.5947 91.7477 92.9025 97.6273 92.9252 106.205Z" fill="#37474F"/>
<path d="M170.254 127.793H135.731V112.208L170.254 71.1663H186.775V113.093H195.365V127.793H186.775V140.547H170.254V127.793ZM170.254 113.093V91.6248L152.014 113.093H170.254Z" fill="#37474F"/>
<g opacity="0.3">
<path opacity="0.3" d="M73.3859 47.2188C73.3859 47.4288 73.3235 47.6342 73.2067 47.8088C73.0899 47.9834 72.9238 48.1193 72.7296 48.1995C72.5355 48.2796 72.3218 48.3003 72.1159 48.2589C71.9099 48.2175 71.7209 48.1159 71.5728 47.9669C71.4246 47.818 71.324 47.6284 71.2837 47.4222C71.2434 47.2161 71.2653 47.0026 71.3464 46.8088C71.4276 46.6151 71.5645 46.4498 71.7397 46.3339C71.9149 46.218 72.1206 46.1567 72.3306 46.1578C72.4697 46.1578 72.6074 46.1853 72.7358 46.2387C72.8642 46.2921 72.9808 46.3703 73.0788 46.4689C73.1769 46.5675 73.2545 46.6845 73.3072 46.8132C73.3599 46.9419 73.3866 47.0797 73.3859 47.2188Z" fill="#37474F"/>
<path opacity="0.3" d="M0.748893 87.9711C1.1625 87.9711 1.49779 87.6358 1.49779 87.2222C1.49779 86.8086 1.1625 86.4733 0.748893 86.4733C0.335291 86.4733 0 86.8086 0 87.2222C0 87.6358 0.335291 87.9711 0.748893 87.9711Z" fill="#37474F"/>
<path opacity="0.3" d="M124.475 197.338C125.067 197.338 125.547 196.858 125.547 196.266C125.547 195.673 125.067 195.193 124.475 195.193C123.883 195.193 123.403 195.673 123.403 196.266C123.403 196.858 123.883 197.338 124.475 197.338Z" fill="#37474F"/>
<path opacity="0.3" d="M150.261 153.709C150.675 153.709 151.01 153.374 151.01 152.96C151.01 152.547 150.675 152.211 150.261 152.211C149.847 152.211 149.512 152.547 149.512 152.96C149.512 153.374 149.847 153.709 150.261 153.709Z" fill="#37474F"/>
<path opacity="0.3" d="M200 18.8516C200 18.9997 199.956 19.1445 199.874 19.2676C199.791 19.3908 199.675 19.4868 199.538 19.5435C199.401 19.6002 199.25 19.615 199.105 19.5861C198.96 19.5572 198.826 19.4859 198.722 19.3811C198.617 19.2764 198.545 19.143 198.517 18.9977C198.488 18.8524 198.503 18.7018 198.559 18.565C198.616 18.4282 198.712 18.3112 198.835 18.2289C198.958 18.1466 199.103 18.1027 199.251 18.1027C199.45 18.1027 199.64 18.1816 199.781 18.322C199.921 18.4625 200 18.653 200 18.8516Z" fill="#37474F"/>
<path opacity="0.3" d="M57.3584 3.74889C57.3584 3.89701 57.3145 4.0418 57.2322 4.16496C57.1499 4.28811 57.033 4.3841 56.8961 4.44078C56.7593 4.49746 56.6087 4.5123 56.4635 4.4834C56.3182 4.4545 56.1847 4.38318 56.08 4.27844C55.9753 4.17371 55.9039 4.04027 55.875 3.895C55.8462 3.74973 55.861 3.59915 55.9177 3.4623C55.9743 3.32546 56.0703 3.2085 56.1935 3.12621C56.3166 3.04392 56.4614 3 56.6095 3C56.8077 3.00148 56.9973 3.08086 57.1375 3.22099C57.2776 3.36111 57.357 3.55073 57.3584 3.74889Z" fill="#37474F"/>
<path opacity="0.3" d="M116.901 43.0431C117.315 43.0431 117.65 42.7078 117.65 42.2942C117.65 41.8806 117.315 41.5453 116.901 41.5453C116.488 41.5453 116.152 41.8806 116.152 42.2942C116.152 42.7078 116.488 43.0431 116.901 43.0431Z" fill="#37474F"/>
</g>
<path d="M39.4758 43.0488C46.3409 43.0488 51.9063 37.4835 51.9063 30.6183C51.9063 23.7531 46.3409 18.1878 39.4758 18.1878C32.6106 18.1878 27.0453 23.7531 27.0453 30.6183C27.0453 37.4835 32.6106 43.0488 39.4758 43.0488Z" fill="#37474F"/>
<path opacity="0.7" d="M39.4758 43.0488C46.3409 43.0488 51.9063 37.4835 51.9063 30.6183C51.9063 23.7531 46.3409 18.1878 39.4758 18.1878C32.6106 18.1878 27.0453 23.7531 27.0453 30.6183C27.0453 37.4835 32.6106 43.0488 39.4758 43.0488Z" fill="white"/>
<path opacity="0.2" d="M35.1923 21.2401C33.4994 21.2349 31.8235 21.5767 30.2678 22.2443C28.3558 24.3457 27.221 27.0384 27.0521 29.8744C26.8832 32.7103 27.6905 35.5187 29.3395 37.8321C30.9886 40.1456 33.38 41.8246 36.116 42.59C38.852 43.3554 41.7675 43.1609 44.3776 42.0389C45.9959 40.2555 47.0615 38.0407 47.4452 35.6633C47.8289 33.2859 47.514 30.8483 46.539 28.6464C45.5639 26.4445 43.9705 24.5731 41.9523 23.2593C39.934 21.9456 37.5778 21.2461 35.1696 21.2458L35.1923 21.2401Z" fill="#37474F"/>
<path opacity="0.2" d="M33.9555 24.525C33.9555 24.7494 33.889 24.9688 33.7643 25.1554C33.6396 25.342 33.4624 25.4875 33.2551 25.5733C33.0477 25.6592 32.8196 25.6817 32.5995 25.6379C32.3794 25.5941 32.1772 25.4861 32.0185 25.3274C31.8598 25.1687 31.7517 24.9665 31.7079 24.7464C31.6642 24.5263 31.6866 24.2981 31.7725 24.0908C31.8584 23.8835 32.0038 23.7062 32.1904 23.5816C32.377 23.4569 32.5964 23.3903 32.8208 23.3903C33.1218 23.3903 33.4104 23.5099 33.6232 23.7227C33.836 23.9355 33.9555 24.2241 33.9555 24.525Z" fill="#37474F"/>
<path opacity="0.2" d="M47.3221 23.3903C47.3221 23.6148 47.2556 23.8341 47.1309 24.0207C47.0062 24.2073 46.829 24.3528 46.6217 24.4386C46.4143 24.5245 46.1862 24.547 45.9661 24.5032C45.746 24.4594 45.5438 24.3514 45.3851 24.1927C45.2264 24.034 45.1183 23.8318 45.0746 23.6117C45.0308 23.3916 45.0532 23.1634 45.1391 22.9561C45.225 22.7488 45.3704 22.5716 45.557 22.4469C45.7436 22.3222 45.963 22.2556 46.1874 22.2556C46.4884 22.2556 46.777 22.3752 46.9898 22.588C47.2026 22.8008 47.3221 23.0894 47.3221 23.3903Z" fill="#37474F"/>
<path opacity="0.2" d="M45.0528 31.492C45.0528 31.86 44.9436 32.2198 44.7391 32.5258C44.5347 32.8319 44.244 33.0704 43.904 33.2112C43.564 33.3521 43.1898 33.3889 42.8288 33.3171C42.4679 33.2453 42.1363 33.0681 41.876 32.8078C41.6158 32.5476 41.4385 32.216 41.3667 31.855C41.2949 31.4941 41.3318 31.1199 41.4726 30.7799C41.6135 30.4398 41.852 30.1492 42.158 29.9447C42.464 29.7403 42.8238 29.6311 43.1919 29.6311C43.6854 29.6311 44.1587 29.8272 44.5077 30.1762C44.8567 30.5251 45.0528 30.9985 45.0528 31.492Z" fill="#37474F"/>
<path opacity="0.2" d="M39.141 36.7967C39.141 37.2881 38.9953 37.7686 38.7222 38.1772C38.4492 38.5859 38.0611 38.9044 37.607 39.0925C37.153 39.2805 36.6533 39.3298 36.1713 39.2339C35.6892 39.138 35.2465 38.9013 34.8989 38.5538C34.5514 38.2063 34.3147 37.7635 34.2188 37.2815C34.123 36.7994 34.1722 36.2998 34.3603 35.8457C34.5483 35.3916 34.8668 35.0035 35.2755 34.7305C35.6841 34.4574 36.1646 34.3117 36.6561 34.3117C37.3151 34.3117 37.9472 34.5735 38.4132 35.0395C38.8792 35.5055 39.141 36.1376 39.141 36.7967Z" fill="#37474F"/>
<path d="M186.798 180.559C188.182 174.695 184.55 168.819 178.686 167.435C172.821 166.051 166.945 169.683 165.561 175.547C164.177 181.411 167.809 187.287 173.673 188.671C179.538 190.056 185.414 186.424 186.798 180.559Z" fill="#37474F"/>
<path opacity="0.3" d="M186.798 180.559C188.182 174.695 184.55 168.819 178.686 167.435C172.821 166.051 166.945 169.683 165.561 175.547C164.177 181.411 167.809 187.287 173.673 188.671C179.538 190.056 185.414 186.424 186.798 180.559Z" fill="white"/>
<path opacity="0.4" d="M183.07 169.606C180.652 168.876 178.055 169.009 175.723 169.981C173.392 170.953 171.47 172.705 170.286 174.937C169.103 177.168 168.731 179.742 169.234 182.218C169.737 184.693 171.084 186.917 173.045 188.51C174.063 188.819 175.12 188.976 176.183 188.975C178.435 188.975 180.632 188.277 182.472 186.978C184.312 185.679 185.705 183.843 186.46 181.721C187.215 179.598 187.294 177.295 186.687 175.126C186.08 172.957 184.817 171.029 183.07 169.606Z" fill="#37474F"/>
<path d="M165.766 181.327C154.119 186.808 162.805 191.035 179.218 185.134C194.417 179.671 200.21 172.783 186.594 174.922C187.326 177.787 168.291 185.202 165.766 181.327Z" fill="#37474F"/>
<path opacity="0.2" d="M182.94 71.1663C167.684 81.475 147.935 95.0912 142.483 127.793H141.32C146.624 95.4543 165.653 81.5147 180.915 71.1663H182.94Z" fill="black"/>
<path d="M104.022 173.538C94.3776 173.538 84.8405 169.186 80.194 162.083C77.3289 157.692 73.9986 148.495 83.9158 136.224L84.7952 136.938C77.7828 145.619 76.4892 154.328 81.1471 161.465C86.8206 170.145 100.204 174.514 111.631 171.405C123.335 168.222 130.438 158.044 131.124 143.48C133.468 93.6615 159.934 78.3149 179.258 67.1098C191.269 60.1485 199.943 55.1219 198.037 44.5069C197.77 43.0374 197.186 42.0219 196.238 41.3978C193.771 39.7695 188.948 40.8986 183.365 42.1978C172.41 44.7508 157.409 48.2457 148.474 33.0465L149.455 32.4792C157.965 46.9635 171.905 43.7126 183.11 41.1028C188.948 39.7469 193.986 38.5725 196.863 40.4617C198.082 41.2617 198.831 42.5268 199.132 44.3196C201.18 55.7119 191.756 61.1811 179.814 68.1027C160.711 79.1772 134.557 94.3423 132.242 143.559C131.527 158.651 124.118 169.209 111.909 172.528C109.336 173.213 106.684 173.553 104.022 173.538Z" fill="#37474F"/>
<path opacity="0.2" d="M104.022 173.538C94.3776 173.538 84.8405 169.186 80.194 162.083C77.3289 157.692 73.9986 148.495 83.9158 136.224L84.7952 136.938C77.7828 145.619 76.4892 154.328 81.1471 161.465C86.8206 170.145 100.204 174.514 111.631 171.405C123.335 168.222 130.438 158.044 131.124 143.48C133.468 93.6615 159.934 78.3149 179.258 67.1098C191.269 60.1485 199.943 55.1219 198.037 44.5069C197.77 43.0374 197.186 42.0219 196.238 41.3978C193.771 39.7695 188.948 40.8986 183.365 42.1978C172.41 44.7508 157.409 48.2457 148.474 33.0465L149.455 32.4792C157.965 46.9635 171.905 43.7126 183.11 41.1028C188.948 39.7469 193.986 38.5725 196.863 40.4617C198.082 41.2617 198.831 42.5268 199.132 44.3196C201.18 55.7119 191.756 61.1811 179.814 68.1027C160.711 79.1772 134.557 94.3423 132.242 143.559C131.527 158.651 124.118 169.209 111.909 172.528C109.336 173.213 106.684 173.553 104.022 173.538Z" fill="white"/>
<path d="M136.792 19.6345C139.406 19.6496 142.003 20.057 144.497 20.843C144.497 20.843 150.738 31.492 151.475 33.9316C151.214 36.3371 147.158 40.2802 147.158 40.2802L136.792 19.6345Z" fill="#37474F"/>
<path opacity="0.3" d="M136.792 19.6345C139.406 19.6496 142.003 20.057 144.497 20.843C144.497 20.843 150.738 31.492 151.475 33.9316C151.214 36.3371 147.158 40.2802 147.158 40.2802L136.792 19.6345Z" fill="white"/>
<path d="M155.276 71.3365C152.873 68.3979 150.681 65.2924 148.718 62.0435C148.241 61.2227 147.789 60.3868 147.362 59.5358C147.118 59.0536 146.885 58.5713 146.658 58.0834C146.361 57.6086 146.13 57.0951 145.972 56.5572C145.291 49.369 147.753 44.0757 145.404 38.3058L136.055 41.9595C136.055 41.9595 136.849 52.2398 138.664 58.4125C139.799 62.2307 142.341 65.5326 144.797 68.5906C145.563 69.5437 146.301 70.5252 147.067 71.4841C147.833 72.4429 148.604 73.2201 149.336 74.1222C150.442 75.4895 150.806 76.8001 149.972 78.4113L149.83 78.6666C149.591 79.0865 150.703 79.563 151.407 78.6666C152.542 77.2029 152.383 77.2937 153.37 76.0455C153.971 75.2909 154.658 74.4683 155.254 73.7761C155.541 73.4358 155.7 73.0058 155.705 72.5604C155.709 72.115 155.557 71.6822 155.276 71.3365Z" fill="#37474F"/>
<path opacity="0.7" d="M155.276 71.3365C152.873 68.3979 150.681 65.2924 148.718 62.0435C148.241 61.2227 147.789 60.3868 147.362 59.5358C147.118 59.0536 146.885 58.5713 146.658 58.0834C146.361 57.6086 146.13 57.0951 145.972 56.5572C145.291 49.369 147.753 44.0757 145.404 38.3058L136.055 41.9595C136.055 41.9595 136.849 52.2398 138.664 58.4125C139.799 62.2307 142.341 65.5326 144.797 68.5906C145.563 69.5437 146.301 70.5252 147.067 71.4841C147.833 72.4429 148.604 73.2201 149.336 74.1222C150.442 75.4895 150.806 76.8001 149.972 78.4113L149.83 78.6666C149.591 79.0865 150.703 79.563 151.407 78.6666C152.542 77.2029 152.383 77.2937 153.37 76.0455C153.971 75.2909 154.658 74.4683 155.254 73.7761C155.541 73.4358 155.7 73.0058 155.705 72.5604C155.709 72.115 155.557 71.6822 155.276 71.3365Z" fill="white"/>
<path opacity="0.3" d="M152.99 68.3807C151.506 69.9711 149.859 71.4011 148.077 72.6471C148.321 72.9194 148.559 73.2145 148.803 73.4754C150.588 72.2696 152.209 70.8374 153.625 69.2147L152.99 68.3807Z" fill="#37474F"/>
<path opacity="0.3" d="M155.276 71.3365L155.208 71.2571C154.772 71.7579 154.518 72.3919 154.488 73.0556C154.451 73.5109 154.525 73.9683 154.703 74.3889L155.242 73.7478C155.524 73.4109 155.681 72.9873 155.687 72.5482C155.694 72.1091 155.548 71.6812 155.276 71.3365Z" fill="#37474F"/>
<path d="M134.568 26.4426C133.555 27.9604 132.339 29.3327 130.954 30.5218C130.186 31.1836 129.345 31.7547 128.447 32.2239C127.975 32.4657 127.485 32.6724 126.983 32.8423L126.597 32.9671L126.472 33.0011L126.206 33.0749C126.041 33.1139 125.874 33.1404 125.706 33.1543C125.228 33.1909 124.746 33.1468 124.282 33.0238C123.697 32.8577 123.136 32.6155 122.614 32.3033C122.194 32.0578 121.787 31.7907 121.394 31.5033C120.685 30.9757 120.007 30.4074 119.363 29.8013C118.122 28.6255 116.984 27.3462 115.959 25.9774C115.762 25.7108 115.664 25.3836 115.682 25.0524C115.701 24.7213 115.834 24.4068 116.059 24.1634C116.284 23.92 116.588 23.7628 116.916 23.719C117.245 23.6753 117.579 23.7476 117.86 23.9236H117.905C119.244 24.7747 120.595 25.6711 121.911 26.471C122.58 26.8625 123.227 27.2596 123.868 27.566C124.161 27.7192 124.462 27.8556 124.77 27.9745C124.962 28.0592 125.168 28.1092 125.377 28.122C125.411 28.122 125.377 28.0823 125.167 28.0879C125.101 28.084 125.035 28.084 124.969 28.0879L124.844 28.1163L125.031 28.0199C125.283 27.8842 125.528 27.7346 125.763 27.5717C126.271 27.2137 126.745 26.8112 127.181 26.3689C128.173 25.3302 129.101 24.2333 129.961 23.084C130.433 22.5565 131.084 22.2242 131.788 22.1524C132.492 22.0805 133.197 22.2742 133.766 22.6955C134.334 23.1168 134.724 23.7352 134.86 24.4295C134.996 25.1238 134.868 25.8438 134.5 26.4483L134.568 26.4426Z" fill="#37474F"/>
<path opacity="0.7" d="M134.568 26.4426C133.555 27.9604 132.339 29.3327 130.954 30.5218C130.186 31.1836 129.345 31.7547 128.447 32.2239C127.975 32.4657 127.485 32.6724 126.983 32.8423L126.597 32.9671L126.472 33.0011L126.206 33.0749C126.041 33.1139 125.874 33.1404 125.706 33.1543C125.228 33.1909 124.746 33.1468 124.282 33.0238C123.697 32.8577 123.136 32.6155 122.614 32.3033C122.194 32.0578 121.787 31.7907 121.394 31.5033C120.685 30.9757 120.007 30.4074 119.363 29.8013C118.122 28.6255 116.984 27.3462 115.959 25.9774C115.762 25.7108 115.664 25.3836 115.682 25.0524C115.701 24.7213 115.834 24.4068 116.059 24.1634C116.284 23.92 116.588 23.7628 116.916 23.719C117.245 23.6753 117.579 23.7476 117.86 23.9236H117.905C119.244 24.7747 120.595 25.6711 121.911 26.471C122.58 26.8625 123.227 27.2596 123.868 27.566C124.161 27.7192 124.462 27.8556 124.77 27.9745C124.962 28.0592 125.168 28.1092 125.377 28.122C125.411 28.122 125.377 28.0823 125.167 28.0879C125.101 28.084 125.035 28.084 124.969 28.0879L124.844 28.1163L125.031 28.0199C125.283 27.8842 125.528 27.7346 125.763 27.5717C126.271 27.2137 126.745 26.8112 127.181 26.3689C128.173 25.3302 129.101 24.2333 129.961 23.084C130.433 22.5565 131.084 22.2242 131.788 22.1524C132.492 22.0805 133.197 22.2742 133.766 22.6955C134.334 23.1168 134.724 23.7352 134.86 24.4295C134.996 25.1238 134.868 25.8438 134.5 26.4483L134.568 26.4426Z" fill="white"/>
<path d="M113.832 22.7095L114.496 23.8442C114.496 23.8442 115.001 25.3307 116.016 25.603L118.773 24.7122L118.632 24.4796C118.28 23.9463 118.319 22.9081 118.439 22.0457C118.558 21.1834 118.115 21.155 117.786 21.3706C117.553 21.6388 117.389 21.9603 117.31 22.3067C117.174 22.1194 117.024 21.9429 116.861 21.7791L116.022 20.9394C115.846 20.7672 115.611 20.668 115.365 20.6617C115.118 20.6554 114.879 20.7424 114.694 20.9054L114.013 21.5124C113.852 21.6618 113.746 21.8617 113.713 22.0792C113.68 22.2967 113.722 22.519 113.832 22.7095Z" fill="#37474F"/>
<path opacity="0.7" d="M113.832 22.7095L114.496 23.8442C114.496 23.8442 115.001 25.3307 116.016 25.603L118.773 24.7122L118.632 24.4796C118.28 23.9463 118.319 22.9081 118.439 22.0457C118.558 21.1834 118.115 21.155 117.786 21.3706C117.553 21.6388 117.389 21.9603 117.31 22.3067C117.174 22.1194 117.024 21.9429 116.861 21.7791L116.022 20.9394C115.846 20.7672 115.611 20.668 115.365 20.6617C115.118 20.6554 114.879 20.7424 114.694 20.9054L114.013 21.5124C113.852 21.6618 113.746 21.8617 113.713 22.0792C113.68 22.2967 113.722 22.519 113.832 22.7095Z" fill="white"/>
<path d="M139.578 18.6246C136.519 19.4353 133.59 20.6709 130.875 22.2954C130.451 22.5605 130.119 22.9487 129.922 23.4081C129.725 23.8674 129.674 24.3759 129.774 24.8654C130.869 30.2212 133.36 37.3924 136.049 41.9595L148.593 36.7683C148.678 34.5557 145.631 27.3958 142.528 20.4742C141.972 19.2317 140.9 18.3069 139.578 18.6246Z" fill="#37474F"/>
<path opacity="0.8" d="M139.578 18.6246C136.519 19.4353 133.59 20.6709 130.875 22.2954C130.451 22.5605 130.119 22.9487 129.922 23.4081C129.725 23.8674 129.674 24.3759 129.774 24.8654C130.869 30.2212 133.36 37.3924 136.049 41.9595L148.593 36.7683C148.678 34.5557 145.631 27.3958 142.528 20.4742C141.972 19.2317 140.9 18.3069 139.578 18.6246Z" fill="white"/>
<path opacity="0.3" d="M144.474 24.8598L141.983 24.0258C142.551 25.4838 144.553 27.3277 145.955 28.4113C145.501 27.2766 144.996 26.0852 144.474 24.8598Z" fill="#37474F"/>
<path d="M138.755 13.0079C137.717 11.0336 135.476 10.0407 132.787 10.262C130.517 10.4549 128.509 12.7697 128.747 14.0178C128.986 15.266 130.892 15.7993 131.255 16.2305L129.683 17.3651C129.497 17.4995 129.34 17.6702 129.222 17.8668C129.103 18.0635 129.026 18.2821 128.994 18.5095C128.962 18.7369 128.977 18.9683 129.037 19.1899C129.097 19.4116 129.201 19.6188 129.343 19.799C130.007 20.6387 130.88 21.5011 131.385 22.1365C135.731 22.023 138.948 20.3664 140.111 18.7722C139.674 16.7524 139.765 14.971 138.755 13.0079Z" fill="#37474F"/>
<path opacity="0.8" d="M138.755 13.0079C137.717 11.0336 135.476 10.0407 132.787 10.262C130.517 10.4549 128.509 12.7697 128.747 14.0178C128.986 15.266 130.892 15.7993 131.255 16.2305L129.683 17.3651C129.497 17.4995 129.34 17.6702 129.222 17.8668C129.103 18.0635 129.026 18.2821 128.994 18.5095C128.962 18.7369 128.977 18.9683 129.037 19.1899C129.097 19.4116 129.201 19.6188 129.343 19.799C130.007 20.6387 130.88 21.5011 131.385 22.1365C135.731 22.023 138.948 20.3664 140.111 18.7722C139.674 16.7524 139.765 14.971 138.755 13.0079Z" fill="white"/>
<path d="M136.622 14.2334C136.931 15.0246 136.998 15.8896 136.815 16.7189C136.632 17.5482 136.207 18.3046 135.594 18.8926C134.981 19.4806 134.208 19.8737 133.372 20.0222C132.536 20.1707 131.674 20.0681 130.896 19.7271C130.119 19.3862 129.459 18.8223 129.002 18.1068C128.545 17.3912 128.31 16.5561 128.327 15.7071C128.344 14.858 128.612 14.0331 129.098 13.3365C129.584 12.64 130.265 12.1031 131.056 11.7938C132.118 11.3803 133.3 11.4049 134.344 11.8623C135.387 12.3197 136.207 13.1725 136.622 14.2334Z" fill="#263238"/>
<path d="M173.46 65.3624C173.397 63.4959 173.312 63.6604 173.261 62.0888C173.227 61.1244 173.221 60.0521 173.216 59.1273C173.214 58.6881 173.06 58.2631 172.781 57.924C172.502 57.585 172.114 57.3527 171.684 57.2664C170.935 57.1132 170.18 56.9714 169.414 56.8125C168.433 56.6026 167.463 56.3757 166.504 56.0977C165.755 55.8821 165.018 55.6438 164.286 55.3772C163.554 55.1105 162.731 54.8098 161.971 54.4581C161.075 54.078 160.189 53.6695 159.316 53.244C158.334 52.7787 157.364 52.2908 156.394 51.7972C152.661 45.6189 152.581 41.5453 148.576 36.7683L139.975 40.6603C139.975 40.6603 146.295 51.871 150.596 56.6253C153.075 59.3599 156.961 60.5967 160.428 61.4931C162.93 62.1342 165.466 62.6278 168.002 63.0987C168.989 63.2803 170.061 63.3483 170.912 63.9384C171.542 64.4211 171.974 65.1172 172.126 65.8957C172.164 66.0546 172.198 66.2134 172.228 66.3723C172.336 66.8489 173.499 66.4858 173.46 65.3624Z" fill="#37474F"/>
<path opacity="0.8" d="M173.46 65.3624C173.397 63.4959 173.312 63.6604 173.261 62.0888C173.227 61.1244 173.221 60.0521 173.216 59.1273C173.214 58.6881 173.06 58.2631 172.781 57.924C172.502 57.585 172.114 57.3527 171.684 57.2664C170.935 57.1132 170.18 56.9714 169.414 56.8125C168.433 56.6026 167.463 56.3757 166.504 56.0977C165.755 55.8821 165.018 55.6438 164.286 55.3772C163.554 55.1105 162.731 54.8098 161.971 54.4581C161.075 54.078 160.189 53.6695 159.316 53.244C158.334 52.7787 157.364 52.2908 156.394 51.7972C152.661 45.6189 152.581 41.5453 148.576 36.7683L139.975 40.6603C139.975 40.6603 146.295 51.871 150.596 56.6253C153.075 59.3599 156.961 60.5967 160.428 61.4931C162.93 62.1342 165.466 62.6278 168.002 63.0987C168.989 63.2803 170.061 63.3483 170.912 63.9384C171.542 64.4211 171.974 65.1172 172.126 65.8957C172.164 66.0546 172.198 66.2134 172.228 66.3723C172.336 66.8489 173.499 66.4858 173.46 65.3624Z" fill="white"/>
<path opacity="0.3" d="M169.097 56.7388C168.756 56.665 168.416 56.5913 168.07 56.5062C168.098 58.4692 167.179 61.8506 166.844 62.8775L167.922 63.0817C168.629 61.038 169.025 58.8999 169.097 56.7388Z" fill="#37474F"/>
<path opacity="0.3" d="M173.238 59.1273C173.237 58.6889 173.084 58.2645 172.806 57.9256C172.528 57.5866 172.142 57.3538 171.712 57.2664L171.145 57.1586C171.236 57.8036 171.566 58.3908 172.07 58.8039C172.394 59.1033 172.782 59.3246 173.204 59.4507C173.238 59.3486 173.238 59.2351 173.238 59.1273Z" fill="#37474F"/>
<path d="M135.822 14.2674C136.049 15.1298 135.084 16.0319 134.319 15.2887C133.604 14.5222 132.821 13.8216 131.981 13.1952C131.193 12.7016 132.242 11.8392 133.485 12.1739C134.015 12.3071 134.505 12.5673 134.912 12.932C135.319 13.2968 135.631 13.7551 135.822 14.2674Z" fill="white"/>
<path d="M135.884 41.6815C135.487 41.829 136.214 42.5098 136.214 42.5098C136.214 42.5098 144.156 39.7922 148.979 36.9952C148.99 36.8259 148.961 36.6562 148.894 36.5003C148.827 36.3444 148.724 36.2068 148.593 36.0988C144.466 38.1983 140.223 40.0622 135.884 41.6815Z" fill="#37474F"/>
<path opacity="0.5" d="M135.884 41.6815C135.487 41.829 136.214 42.5098 136.214 42.5098C136.214 42.5098 144.156 39.7922 148.979 36.9952C148.99 36.8259 148.961 36.6562 148.894 36.5003C148.827 36.3444 148.724 36.2068 148.593 36.0988C144.466 38.1983 140.223 40.0622 135.884 41.6815Z" fill="white"/>
<path d="M141.728 18.2502C143.294 19.0445 144.763 19.8785 146.267 20.8032C146.999 21.2685 147.725 21.7394 148.445 22.25C149.166 22.7606 149.881 23.2825 150.601 23.8726L150.868 24.0938L151.203 24.4002C151.402 24.5787 151.592 24.7681 151.77 24.9676C151.952 25.1661 152.105 25.359 152.252 25.5349C152.4 25.7108 152.559 25.9207 152.689 26.1022C153.218 26.8316 153.706 27.5892 154.153 28.3716C155.032 29.8889 155.791 31.4729 156.422 33.1089C156.539 33.418 156.545 33.758 156.439 34.0711C156.334 34.3842 156.123 34.651 155.843 34.8261C155.563 35.0013 155.23 35.0741 154.903 35.032C154.575 34.9899 154.272 34.8356 154.045 34.5954L154.017 34.5613C152.882 33.3529 151.787 32.082 150.686 30.8963C149.586 29.7105 148.468 28.5078 147.543 27.9801C146.255 27.1802 144.82 26.3802 143.396 25.5973L139.107 23.2145C138.442 22.8624 137.944 22.2605 137.723 21.5412C137.501 20.822 137.575 20.0443 137.927 19.3792C138.279 18.7141 138.881 18.2162 139.6 17.9949C140.319 17.7736 141.097 17.847 141.762 18.1991L141.728 18.2502Z" fill="#37474F"/>
<path opacity="0.8" d="M141.728 18.2502C143.294 19.0445 144.763 19.8785 146.267 20.8032C146.999 21.2685 147.725 21.7394 148.445 22.25C149.166 22.7606 149.881 23.2825 150.601 23.8726L150.868 24.0938L151.203 24.4002C151.402 24.5787 151.592 24.7681 151.77 24.9676C151.952 25.1661 152.105 25.359 152.252 25.5349C152.4 25.7108 152.559 25.9207 152.689 26.1022C153.218 26.8316 153.706 27.5892 154.153 28.3716C155.032 29.8889 155.791 31.4729 156.422 33.1089C156.539 33.418 156.545 33.758 156.439 34.0711C156.334 34.3842 156.123 34.651 155.843 34.8261C155.563 35.0013 155.23 35.0741 154.903 35.032C154.575 34.9899 154.272 34.8356 154.045 34.5954L154.017 34.5613C152.882 33.3529 151.787 32.082 150.686 30.8963C149.586 29.7105 148.468 28.5078 147.543 27.9801C146.255 27.1802 144.82 26.3802 143.396 25.5973L139.107 23.2145C138.442 22.8624 137.944 22.2605 137.723 21.5412C137.501 20.822 137.575 20.0443 137.927 19.3792C138.279 18.7141 138.881 18.2162 139.6 17.9949C140.319 17.7736 141.097 17.847 141.762 18.1991L141.728 18.2502Z" fill="white"/>
<path d="M157.767 35.94L157.285 34.7315C157.285 34.7315 157.018 33.1884 156.059 32.7572L153.222 33.2054L153.319 33.455C153.58 34.0224 153.381 35.0606 153.126 35.8889C152.871 36.7172 153.302 36.825 153.665 36.6605C153.869 36.5697 154.068 36.201 154.283 35.8095C154.389 36.0067 154.509 36.1963 154.641 36.3768L155.339 37.3356C155.484 37.5343 155.7 37.6705 155.942 37.7168C156.184 37.7631 156.435 37.7161 156.644 37.5853L157.415 37.0917C157.596 36.9681 157.729 36.7868 157.793 36.5775C157.857 36.3682 157.848 36.1434 157.767 35.94Z" fill="#37474F"/>
<path opacity="0.8" d="M157.767 35.94L157.285 34.7315C157.285 34.7315 157.018 33.1884 156.059 32.7572L153.222 33.2054L153.319 33.455C153.58 34.0224 153.381 35.0606 153.126 35.8889C152.871 36.7172 153.302 36.825 153.665 36.6605C153.869 36.5697 154.068 36.201 154.283 35.8095C154.389 36.0067 154.509 36.1963 154.641 36.3768L155.339 37.3356C155.484 37.5343 155.7 37.6705 155.942 37.7168C156.184 37.7631 156.435 37.7161 156.644 37.5853L157.415 37.0917C157.596 36.9681 157.729 36.7868 157.793 36.5775C157.857 36.3682 157.848 36.1434 157.767 35.94Z" fill="white"/>
<path opacity="0.3" d="M139.334 24.7747L138.642 24.8314L134.392 35.089C134.625 35.1057 134.858 35.0865 135.084 35.0322C135.084 35.0322 140.622 32.9671 142.295 32.1955C141.172 29.8751 139.334 24.7747 139.334 24.7747Z" fill="#37474F"/>
<path d="M131.578 27.4639C132.095 30.1452 133.053 32.7221 134.415 35.089C136.492 34.3741 139.952 33.0238 141.632 32.2522C140.503 29.8325 139.501 27.3555 138.63 24.8314C136.855 24.9505 132.957 26.4426 131.578 27.4639Z" fill="white"/>
<path opacity="0.3" d="M135.794 29.6822C135.711 29.9596 135.547 30.2062 135.324 30.3908C135.101 30.5754 134.828 30.6896 134.54 30.7191C134.252 30.7485 133.962 30.6919 133.706 30.5563C133.45 30.4207 133.24 30.2123 133.103 29.9574C132.965 29.7025 132.907 29.4125 132.934 29.1242C132.962 28.836 133.074 28.5623 133.257 28.3379C133.44 28.1135 133.685 27.9484 133.962 27.8635C134.239 27.7786 134.535 27.7777 134.812 27.861C135.184 27.9726 135.496 28.227 135.68 28.5685C135.864 28.91 135.905 29.3105 135.794 29.6822Z" fill="#37474F"/>
<path opacity="0.6" d="M136.877 27.7305C136.855 27.8252 136.805 27.911 136.733 27.9767C136.661 28.0423 136.572 28.0847 136.475 28.0984C136.379 28.112 136.281 28.0962 136.194 28.053C136.106 28.0098 136.034 27.9413 135.987 27.8565C135.939 27.7716 135.919 27.6744 135.927 27.5775C135.936 27.4807 135.974 27.3887 136.036 27.3138C136.098 27.2388 136.181 27.1843 136.274 27.1574C136.368 27.1305 136.467 27.1325 136.56 27.1632C136.675 27.1999 136.771 27.2789 136.83 27.3842C136.889 27.4895 136.906 27.6133 136.877 27.7305Z" fill="#37474F"/>
<path opacity="0.6" d="M138.148 27.2369C138.135 27.3027 138.108 27.365 138.069 27.4199C138.03 27.4747 137.981 27.5208 137.923 27.5552C137.865 27.5897 137.801 27.6117 137.734 27.6199C137.668 27.6281 137.6 27.6223 137.536 27.6029C137.472 27.5834 137.412 27.5508 137.361 27.507C137.31 27.4633 137.269 27.4093 137.24 27.3487C137.211 27.2881 137.195 27.2221 137.193 27.155C137.192 27.0879 137.204 27.0211 137.229 26.9589C137.247 26.8989 137.277 26.843 137.317 26.7945C137.357 26.7461 137.406 26.7059 137.461 26.6764C137.516 26.6469 137.577 26.6286 137.639 26.6225C137.702 26.6165 137.765 26.6228 137.825 26.6412C137.946 26.678 138.048 26.7612 138.109 26.8727C138.169 26.9842 138.183 27.1151 138.148 27.2369Z" fill="#37474F"/>
<path opacity="0.5" d="M139.93 31.6565L134.682 33.7273L134.37 32.6948L139.612 30.624L139.93 31.6565Z" fill="#37474F"/>
<path opacity="0.2" d="M110.978 110.506C110.966 113.81 110.647 117.105 110.025 120.349C109.355 123.266 108.315 125.399 106.905 126.749C106.247 127.401 105.467 127.916 104.609 128.264C103.751 128.612 102.832 128.785 101.906 128.774C98.9901 128.774 96.7642 127.184 95.2286 124.003C94.9588 123.432 94.7294 122.842 94.5421 122.239C91.2991 125.024 88.2791 128.059 85.51 131.316L82.4974 134.868C84.1187 136.511 85.9894 137.888 88.0404 138.947C91.5731 140.774 96.2101 141.689 101.952 141.693C102.962 141.693 103.937 141.664 104.885 141.608C108.358 136.468 111.233 130.948 113.452 125.155L121.877 103.187L110.978 110.506Z" fill="black"/>
<path d="M35.0278 140.479L44.9563 150.407L72.7562 124.213C63.1737 120.554 44.5422 130.942 35.0278 140.479Z" fill="#263238"/>
<path d="M69.6528 175.087C66.4813 171.91 59.7243 165.158 59.7243 165.158L85.9185 137.358C89.5552 146.918 79.1671 165.567 69.6528 175.087Z" fill="#263238"/>
<path d="M107.653 112.509L118.484 91.6248L97.6001 102.467C90.8921 105.946 84.6984 110.337 79.1955 115.516L43.5947 149.029L61.0859 166.52L94.5989 130.919C99.7799 125.415 104.173 119.219 107.653 112.509Z" fill="#37474F"/>
<path opacity="0.6" d="M107.653 112.509L118.484 91.6248L97.6001 102.467C90.8921 105.946 84.6984 110.337 79.1955 115.516L43.5947 149.029L61.0859 166.52L94.5989 130.919C99.7799 125.415 104.173 119.219 107.653 112.509Z" fill="white"/>
<path d="M85.4136 132.014C89.4556 132.014 92.7323 128.737 92.7323 124.695C92.7323 120.653 89.4556 117.376 85.4136 117.376C81.3716 117.376 78.0949 120.653 78.0949 124.695C78.0949 128.737 81.3716 132.014 85.4136 132.014Z" fill="white"/>
<path d="M85.4136 129.399C88.0111 129.399 90.1169 127.293 90.1169 124.695C90.1169 122.098 88.0111 119.992 85.4136 119.992C82.816 119.992 80.7103 122.098 80.7103 124.695C80.7103 127.293 82.816 129.399 85.4136 129.399Z" fill="#37474F"/>
<path opacity="0.3" d="M67.0033 160.234L49.8752 143.106L63.8999 129.909L80.1997 146.215L67.0033 160.234Z" fill="#37474F"/>
<path d="M38.9028 156.149C26.0808 157.187 21.8314 165.396 20.379 176.306C19.6414 181.872 19.3124 187.506 14.6431 190.762C14.3623 190.953 14.1508 191.23 14.0403 191.551C13.9299 191.872 13.9265 192.221 14.0307 192.544C14.1348 192.867 14.3409 193.148 14.618 193.344C14.8951 193.541 15.2284 193.642 15.5679 193.633C32.7811 193.094 40.809 184.669 41.8189 181.152C41.5538 182.99 41.0799 184.793 40.4062 186.524C40.2824 186.83 40.2581 187.167 40.3369 187.487C40.4157 187.807 40.5935 188.094 40.845 188.307C41.0965 188.52 41.4089 188.649 41.7376 188.674C42.0662 188.699 42.3945 188.62 42.6756 188.448C47.5037 185.424 53.5629 179.852 53.9657 170.815C50.4142 165.782 38.9028 156.149 38.9028 156.149Z" fill="#37474F"/>
<path opacity="0.2" d="M38.9028 156.149C26.0808 157.187 21.8314 165.396 20.379 176.306C19.6414 181.872 19.3124 187.506 14.6431 190.762C14.3623 190.953 14.1508 191.23 14.0403 191.551C13.9299 191.872 13.9265 192.221 14.0307 192.544C14.1348 192.867 14.3409 193.148 14.618 193.344C14.8951 193.541 15.2284 193.642 15.5679 193.633C32.7811 193.094 40.809 184.669 41.8189 181.152C41.5538 182.99 41.0799 184.793 40.4062 186.524C40.2824 186.83 40.2581 187.167 40.3369 187.487C40.4157 187.807 40.5935 188.094 40.845 188.307C41.0965 188.52 41.4089 188.649 41.7376 188.674C42.0662 188.699 42.3945 188.62 42.6756 188.448C47.5037 185.424 53.5629 179.852 53.9657 170.815C50.4142 165.782 38.9028 156.149 38.9028 156.149Z" fill="white"/>
<path d="M55.9571 174.69L35.4193 154.152L46.3577 151.786L58.3229 163.751L55.9571 174.69Z" fill="#37474F"/>
</svg>
