<svg width="48" height="48" viewBox="0 0 48 48" fill="none" xmlns="http://www.w3.org/2000/svg">
<circle cx="24" cy="24" r="24" fill="#BBCAF3"/>
<path d="M26.5158 30.5C25.327 30.5011 24.1609 30.1751 23.145 29.5578C22.129 28.9405 21.3025 28.0556 20.7558 27H25.8958C26.2758 27 26.6258 26.79 26.7858 26.45C27.1158 25.79 26.6358 25 25.8958 25H20.0958C20.0458 24.67 20.0158 24.34 20.0158 24C20.0158 23.66 20.0458 23.33 20.0958 23H25.8958C26.2758 23 26.6258 22.79 26.7858 22.45C26.8643 22.298 26.9022 22.1282 26.8959 21.9573C26.8896 21.7863 26.8393 21.6198 26.7497 21.474C26.6602 21.3282 26.5346 21.2079 26.385 21.1249C26.2354 21.0419 26.0669 20.9988 25.8958 21H20.7558C21.3035 19.9452 22.1302 19.061 23.1459 18.4438C24.1616 17.8266 25.3273 17.5001 26.5158 17.5C27.7658 17.5 28.9358 17.86 29.9358 18.47C30.4358 18.78 31.0858 18.73 31.5058 18.31C32.0858 17.73 31.9558 16.78 31.2558 16.35C29.8315 15.4694 28.1904 15.002 26.5158 15C22.5958 15 19.2758 17.51 18.0358 21H15.1358C14.7558 21 14.4058 21.21 14.2358 21.55C13.9058 22.22 14.3858 23 15.1358 23H17.5758C17.4948 23.6642 17.4948 24.3358 17.5758 25H15.1358C14.7558 25 14.4058 25.21 14.2458 25.55C13.9058 26.22 14.3858 27 15.1358 27H18.0358C19.2758 30.49 22.5958 33 26.5158 33C28.2558 33 29.8758 32.51 31.2558 31.65C31.9458 31.22 32.0758 30.26 31.4958 29.68C31.0758 29.26 30.4258 29.21 29.9258 29.53C28.9358 30.15 27.7758 30.5 26.5158 30.5Z" fill="#0E1E4D"/>
</svg>
