<svg width="56" height="56" viewBox="0 0 56 56" fill="none" xmlns="http://www.w3.org/2000/svg">
<circle cx="28" cy="28" r="28" fill="#FBE4B3"/>
<path d="M28 36.1211H37" stroke="#7C5707" stroke-width="2" stroke-linecap="round" stroke-linejoin="round"/>
<path d="M32.5 19.6213C32.8978 19.2235 33.4374 19 34 19C34.2786 19 34.5544 19.0549 34.8118 19.1615C35.0692 19.2681 35.303 19.4243 35.5 19.6213C35.697 19.8183 35.8532 20.0522 35.9598 20.3095C36.0665 20.5669 36.1213 20.8427 36.1213 21.1213C36.1213 21.3999 36.0665 21.6757 35.9598 21.9331C35.8532 22.1905 35.697 22.4243 35.5 22.6213L23 35.1213L19 36.1213L20 32.1213L32.5 19.6213Z" stroke="#7C5707" stroke-width="2" stroke-linecap="round" stroke-linejoin="round"/>
</svg>
