<svg width="21" height="22" viewBox="0 0 21 22" fill="none" xmlns="http://www.w3.org/2000/svg">
<path d="M8.28613 11.7773C8.64401 12.2558 9.1006 12.6516 9.62492 12.9381C10.1493 13.2246 10.7291 13.3949 11.325 13.4376C11.921 13.4803 12.5191 13.3943 13.0789 13.1855C13.6387 12.9766 14.1471 12.6499 14.5695 12.2273L17.0695 9.72731C17.8285 8.94147 18.2484 7.88896 18.2389 6.79648C18.2294 5.70399 17.7912 4.65894 17.0187 3.8864C16.2462 3.11387 15.2011 2.67567 14.1086 2.66617C13.0162 2.65668 11.9636 3.07666 11.1778 3.83565L9.74447 5.26065" stroke="#D9D9D9" stroke-width="2" stroke-linecap="round" stroke-linejoin="round"/>
<path d="M11.62 10.1104C11.2621 9.63194 10.8055 9.23606 10.2812 8.94959C9.75684 8.66313 9.17704 8.49278 8.58108 8.4501C7.98513 8.40742 7.38697 8.4934 6.82717 8.70223C6.26737 8.91105 5.75903 9.23782 5.33663 9.66038L2.83662 12.1604C2.07763 12.9462 1.65766 13.9987 1.66715 15.0912C1.67664 16.1837 2.11485 17.2288 2.88738 18.0013C3.65991 18.7738 4.70497 19.212 5.79745 19.2215C6.88994 19.231 7.94245 18.811 8.72829 18.052L10.1533 16.627" stroke="#D9D9D9" stroke-width="2" stroke-linecap="round" stroke-linejoin="round"/>
<rect x="7.97656" y="4.95703" width="11.358" height="1.94566" transform="rotate(45.1166 7.97656 4.95703)" fill="white"/>
<path d="M1 1.83594L19.3333 20.1693" stroke="#D9D9D9" stroke-width="2" stroke-linecap="round" stroke-linejoin="round"/>
</svg>
