<svg width="200" height="48" viewBox="0 0 200 48" fill="none" xmlns="http://www.w3.org/2000/svg">
<g clip-path="url(#clip0_8925_180)">
<path d="M23.3541 7.85369C21.0794 1.65624 14.1691 -1.53919 7.91946 0.716498C1.66984 2.97219 -1.55249 9.82481 0.722184 16.0223L9.5778 40.1497C11.8525 46.3472 18.7628 49.5426 25.0124 47.2869C31.262 45.0313 34.4844 38.1786 32.2097 31.9812L23.3541 7.85369Z" fill="url(#paint0_linear_8925_180)"/>
<path d="M43.1058 17.0452C45.9165 11.068 43.3087 3.96291 37.2811 1.17566C31.2535 -1.61158 24.0887 0.974442 21.2779 6.95171L9.96541 31.009C7.1547 36.9862 9.7625 44.0913 15.7901 46.8785C21.8177 49.6658 28.9825 47.0798 31.7933 41.1025L43.1058 17.0452Z" fill="url(#paint1_linear_8925_180)"/>
<path d="M43.4498 7.85369C41.1751 1.65624 34.2648 -1.53919 28.0152 0.716497C21.7655 2.97218 18.5432 9.82481 20.8179 16.0223L29.6735 40.1497C31.9482 46.3472 38.8585 49.5426 45.1081 47.2869C51.3578 45.0313 54.5801 38.1786 52.3054 31.9812L43.4498 7.85369Z" fill="url(#paint2_linear_8925_180)"/>
<path d="M62.7894 17.8382C65.6001 11.8609 62.9923 4.75588 56.9647 1.96863C50.9371 -0.818614 43.7722 1.76741 40.9615 7.74468L30.0191 31.015C27.2083 36.9923 29.8161 44.0973 35.8437 46.8845C41.8713 49.6718 49.0362 47.0858 51.8469 41.1085L62.7894 17.8382Z" fill="url(#paint3_linear_8925_180)"/>
<path d="M56.9624 1.9704C54.4723 0.828513 51.6645 0.560472 49.0005 1.21032C46.3364 1.86017 43.9745 3.38925 42.3027 5.54636C42.7694 6.27118 43.1546 7.04451 43.4514 7.85253L52.3112 31.9786C53.2871 34.6514 53.267 37.5821 52.2547 40.2416L62.7905 17.8335C64.1302 14.9623 64.2692 11.6819 63.1771 8.70943C62.085 5.73692 59.8506 3.31404 56.9624 1.9704Z" fill="#3360DB"/>
<path d="M184.728 27.7781C185.108 28.6368 185.666 29.4066 186.366 30.0376C187.086 30.686 187.932 31.1816 188.852 31.4942C189.863 31.8413 190.926 32.015 191.996 32.0077C193.085 32.0141 194.167 31.8406 195.197 31.4942C196.134 31.1861 196.999 30.6939 197.74 30.047C198.439 29.4295 199.003 28.6764 199.397 27.8342C199.8 26.9547 200.005 25.9991 199.999 25.0332C200.012 24.0525 199.81 23.0808 199.406 22.1855C199.023 21.3132 198.447 20.5377 197.721 19.9166C196.981 19.276 196.125 18.7816 195.197 18.4601C193.145 17.7565 190.914 17.7565 188.861 18.4601C187.963 18.7981 187.136 19.2983 186.422 19.9353C185.722 20.548 185.158 21.2984 184.765 22.1388C184.375 22.9919 184.176 23.9189 184.182 24.8558C184.169 25.8595 184.368 26.8548 184.765 27.7781H184.728ZM189.341 23.754C189.499 23.4085 189.715 23.0926 189.981 22.8204C190.249 22.5475 190.569 22.3315 190.923 22.1855C191.293 22.0314 191.689 21.952 192.09 21.952C192.491 21.952 192.888 22.0314 193.258 22.1855C193.612 22.3315 193.932 22.5475 194.199 22.8204C194.468 23.0906 194.685 23.407 194.84 23.754C195.002 24.1188 195.085 24.5131 195.084 24.9118C195.087 25.3196 195.004 25.7236 194.84 26.0975C194.683 26.4434 194.466 26.7594 194.199 27.0312C193.932 27.304 193.612 27.52 193.258 27.6661C192.888 27.8202 192.491 27.8995 192.09 27.8995C191.689 27.8995 191.293 27.8202 190.923 27.6661C190.569 27.52 190.249 27.304 189.981 27.0312C189.715 26.7594 189.498 26.4434 189.341 26.0975C189.175 25.7142 189.092 25.3008 189.096 24.8838C189.097 24.4883 189.18 24.0971 189.341 23.7354V23.754ZM167.592 31.5222H172.252V24.5196C172.207 23.7992 172.431 23.0875 172.883 22.5216C173.115 22.2777 173.397 22.0875 173.712 21.9649C174.026 21.8422 174.363 21.79 174.7 21.812C174.982 21.8121 175.261 21.8562 175.529 21.9427C175.791 22.0312 176.027 22.1818 176.216 22.3815C176.473 22.6374 176.65 22.9618 176.725 23.3152C176.83 23.8313 176.877 24.3573 176.866 24.8838V31.5035H181.526V23.1938C181.536 22.5653 181.466 21.938 181.319 21.3265C181.179 20.7827 180.915 20.278 180.547 19.8513C180.09 19.3066 179.514 18.8724 178.862 18.5815C178.107 18.2727 177.296 18.1232 176.48 18.1427C175.696 18.1269 174.916 18.26 174.183 18.5348C173.422 18.8839 172.759 19.4129 172.252 20.0754V18.4228H167.592V31.5222ZM159.203 10.4492L155.484 14.9402L157.64 16.5274L162.121 12.5873L159.203 10.4492ZM164.946 25.7521V25.2666C164.958 24.2196 164.793 23.178 164.456 22.1855C164.157 21.3233 163.672 20.5363 163.035 19.8793C162.4 19.2357 161.628 18.7412 160.775 18.4321C159.809 18.0876 158.788 17.9199 157.762 17.9373C156.72 17.9184 155.684 18.086 154.702 18.4321C153.845 18.7402 153.062 19.2237 152.405 19.8513C151.753 20.4768 151.251 21.2394 150.936 22.0828C150.577 23.025 150.402 24.0261 150.418 25.0332C150.404 26.0114 150.586 26.9828 150.955 27.8902C151.305 28.7234 151.828 29.4742 152.49 30.0936C153.179 30.7195 153.989 31.1992 154.872 31.5035C155.857 31.849 156.896 32.0197 157.941 32.0077C161.575 32.0077 163.851 30.5076 164.767 27.5074H160.257C160.023 27.9004 159.686 28.2228 159.281 28.4399C158.876 28.6571 158.42 28.7607 157.96 28.7398C156.077 28.7398 155.135 27.7439 155.135 25.7521H164.946ZM155.22 23.0631C155.303 22.4492 155.611 21.8873 156.086 21.4852C156.595 21.1129 157.21 20.9121 157.842 20.9121C158.474 20.9121 159.09 21.1129 159.598 21.4852C160.076 21.8843 160.407 22.4294 160.54 23.0351L155.22 23.0631ZM138.743 31.5222H143.404V25.9201C143.333 24.9211 143.62 23.9293 144.214 23.1191C144.521 22.791 144.899 22.5364 145.32 22.3746C145.74 22.2129 146.193 22.1482 146.643 22.1855C147.341 22.1781 148.032 22.3349 148.658 22.643V18.1893C148.49 18.157 148.32 18.1413 148.149 18.1427H147.754C146.871 18.1218 145.999 18.3379 145.23 18.7682C144.485 19.2035 143.858 19.8124 143.404 20.5422V18.4228H138.743V31.5222ZM122.135 30.243C122.664 30.7937 123.303 31.2285 124.012 31.5196C124.72 31.8106 125.482 31.9514 126.249 31.933C127.154 31.9396 128.049 31.755 128.876 31.3914C129.674 31.0373 130.389 30.5221 130.976 29.8789C131.576 29.2414 132.049 28.4969 132.369 27.6848C132.706 26.8215 132.875 25.9028 132.868 24.9771C132.874 24.0455 132.704 23.1211 132.369 22.2508C132.054 21.4257 131.577 20.6705 130.966 20.0287C130.364 19.3952 129.641 18.8873 128.838 18.5348C128.011 18.1613 127.111 17.9733 126.202 17.9839C125.423 17.95 124.647 18.1019 123.939 18.4268C123.232 18.7517 122.613 19.2402 122.135 19.8513V18.4228H117.427V38.0298H122.135V30.243ZM127.784 26.1349C127.626 26.4804 127.41 26.7963 127.144 27.0686C126.876 27.3414 126.556 27.5574 126.202 27.7034C125.837 27.8614 125.442 27.9409 125.044 27.9369C124.642 27.9376 124.244 27.8549 123.877 27.6941C123.524 27.5408 123.205 27.3221 122.935 27.0499C122.66 26.785 122.442 26.4673 122.295 26.1162C122.135 25.7541 122.055 25.3628 122.059 24.9678C122.059 24.5662 122.142 24.1688 122.304 23.8007C122.46 23.4543 122.677 23.1382 122.944 22.867C123.215 22.5859 123.541 22.3635 123.902 22.214C124.264 22.0645 124.652 21.9912 125.044 21.9987C125.456 21.9923 125.864 22.0751 126.24 22.2415C126.592 22.3948 126.912 22.6135 127.181 22.8857C127.453 23.1515 127.668 23.4691 127.812 23.8194C127.96 24.1876 128.033 24.5809 128.029 24.9771C128.032 25.367 127.948 25.7527 127.784 26.1069V26.1349ZM109.509 14.3986C109.784 15.0237 110.289 15.5212 110.921 15.7898C111.241 15.9301 111.588 16.0002 111.938 15.9952C112.288 15.9985 112.634 15.9285 112.955 15.7898C113.262 15.6536 113.543 15.4639 113.783 15.2296C114.026 14.991 114.221 14.709 114.358 14.3986C114.494 14.0798 114.565 13.7368 114.565 13.3903C114.565 13.0438 114.494 12.7008 114.358 12.3819C114.223 12.0703 114.028 11.7879 113.783 11.551C113.538 11.3034 113.245 11.1078 112.921 10.9762C112.597 10.8446 112.25 10.7797 111.9 10.7853C111.551 10.7823 111.204 10.8485 110.881 10.98C110.558 11.1114 110.264 11.3055 110.017 11.551C109.773 11.7879 109.577 12.0703 109.443 12.3819C109.179 13.0287 109.179 13.7519 109.443 14.3986H109.509ZM109.546 31.5222H114.254V18.4508H109.546V31.5222ZM81.5547 18.4508L88.3337 31.5222H91.4973L94.642 24.3422L97.9373 31.5222H101.054L107.955 18.4508H102.777L99.4532 25.5467L96.1578 18.4508H93.2862L89.9908 25.3413L86.8273 18.4508H81.5547Z" fill="#182162"/>
</g>
<defs>
<linearGradient id="paint0_linear_8925_180" x1="16.4681" y1="47.9977" x2="16.4681" y2="-0.00229893" gradientUnits="userSpaceOnUse">
<stop stop-color="#F6C968"/>
<stop offset="1" stop-color="#DD6789"/>
</linearGradient>
<linearGradient id="paint1_linear_8925_180" x1="8.9136" y1="24.0889" x2="44.256" y2="24.3764" gradientUnits="userSpaceOnUse">
<stop stop-color="#F6C968"/>
<stop offset="1" stop-color="#DD6789"/>
</linearGradient>
<linearGradient id="paint2_linear_8925_180" x1="36.5572" y1="47.9988" x2="36.5572" y2="-0.00120607" gradientUnits="userSpaceOnUse">
<stop stop-color="#3360DB"/>
<stop offset="1" stop-color="#7CE9CB"/>
</linearGradient>
<linearGradient id="paint3_linear_8925_180" x1="46.4029" y1="47.9993" x2="46.4029" y2="0.848904" gradientUnits="userSpaceOnUse">
<stop stop-color="#3360DB"/>
<stop offset="1" stop-color="#DD6789"/>
</linearGradient>
<clipPath id="clip0_8925_180">
<rect width="200" height="48" fill="white"/>
</clipPath>
</defs>
</svg>
