<svg width="145" height="114" viewBox="0 0 145 114" fill="none" xmlns="http://www.w3.org/2000/svg">
<path d="M54.3036 23.941C49.686 11.2879 35.6581 4.7639 22.9714 9.36926C10.2846 13.9746 3.7433 27.9654 8.3609 40.6185L26.3378 89.8788C30.9554 102.532 44.9833 109.056 57.6701 104.451C70.3568 99.8452 76.8981 85.8545 72.2806 73.2013L54.3036 23.941Z" fill="url(#paint0_linear_4576_117839)"/>
<path d="M94.3998 42.7042C100.106 30.5006 94.8117 15.9944 82.5757 10.3038C70.3397 4.61317 55.795 9.89297 50.0892 22.0966L27.1248 71.2135C21.4191 83.4171 26.7129 97.9232 38.9489 103.614C51.1849 109.304 65.7296 104.025 71.4353 91.8211L94.3998 42.7042Z" fill="url(#paint1_linear_4576_117839)"/>
<path d="M95.0966 23.9435C90.479 11.2903 76.4511 4.76634 63.7643 9.3717C51.0776 13.9771 44.5363 27.9678 49.1539 40.621L67.1308 89.8813C71.7484 102.534 85.7763 109.058 98.463 104.453C111.15 99.8477 117.691 85.8569 113.074 73.2038L95.0966 23.9435Z" fill="url(#paint2_linear_4576_117839)"/>
<path d="M134.357 44.3209C140.063 32.1173 134.769 17.6111 122.533 11.9205C110.297 6.22987 95.7525 11.5097 90.0468 23.7133L67.8335 71.2235C62.1278 83.4271 67.4216 97.9332 79.6576 103.624C91.8936 109.314 106.438 104.035 112.144 91.8311L134.357 44.3209Z" fill="url(#paint3_linear_4576_117839)"/>
<path d="M122.529 11.9271C117.474 9.59576 111.774 9.04851 106.366 10.3753C100.958 11.7021 96.1632 14.8239 92.7695 19.228C93.7169 20.7079 94.4988 22.2868 95.1013 23.9365L113.087 73.1938C115.068 78.6508 115.027 84.6344 112.972 90.0641L134.36 44.3142C137.079 38.4522 137.361 31.7548 135.144 25.686C132.928 19.6171 128.392 14.6704 122.529 11.9271Z" fill="#3360DB"/>
<defs>
<linearGradient id="paint0_linear_4576_117839" x1="40.325" y1="105.902" x2="40.325" y2="7.90172" gradientUnits="userSpaceOnUse">
<stop stop-color="#F6C968"/>
<stop offset="1" stop-color="#DD6789"/>
</linearGradient>
<linearGradient id="paint1_linear_4576_117839" x1="24.9896" y1="57.0849" x2="96.7347" y2="57.6653" gradientUnits="userSpaceOnUse">
<stop stop-color="#F6C968"/>
<stop offset="1" stop-color="#DD6789"/>
</linearGradient>
<linearGradient id="paint2_linear_4576_117839" x1="81.1047" y1="105.906" x2="81.1047" y2="7.90639" gradientUnits="userSpaceOnUse">
<stop stop-color="#3360DB"/>
<stop offset="1" stop-color="#7CE9CB"/>
</linearGradient>
<linearGradient id="paint3_linear_4576_117839" x1="101.093" y1="105.9" x2="101.093" y2="9.63438" gradientUnits="userSpaceOnUse">
<stop stop-color="#3360DB"/>
<stop offset="1" stop-color="#DD6789"/>
</linearGradient>
</defs>
</svg>
