<svg width="48" height="48" viewBox="0 0 48 48" fill="none" xmlns="http://www.w3.org/2000/svg">
<circle cx="24" cy="24" r="24" fill="#FBE4B3"/>
<path d="M31 17L17 31" stroke="#7C5707" stroke-width="2" stroke-linecap="round" stroke-linejoin="round"/>
<path d="M18.5 21C19.8807 21 21 19.8807 21 18.5C21 17.1193 19.8807 16 18.5 16C17.1193 16 16 17.1193 16 18.5C16 19.8807 17.1193 21 18.5 21Z" stroke="#7C5707" stroke-width="2" stroke-linecap="round" stroke-linejoin="round"/>
<path d="M29.5 32C30.8807 32 32 30.8807 32 29.5C32 28.1193 30.8807 27 29.5 27C28.1193 27 27 28.1193 27 29.5C27 30.8807 28.1193 32 29.5 32Z" stroke="#7C5707" stroke-width="2" stroke-linecap="round" stroke-linejoin="round"/>
</svg>
